<?xml version="1.0" standalone="no"?><!DOCTYPE svg PUBLIC "-//W3C//DTD SVG 1.1//EN" "http://www.w3.org/Graphics/SVG/1.1/DTD/svg11.dtd"><svg t="1731556477045" class="icon" viewBox="0 0 1024 1024" version="1.1" xmlns="http://www.w3.org/2000/svg" p-id="65190" xmlns:xlink="http://www.w3.org/1999/xlink" width="128" height="128"><path d="M512 975.238095c260.87619-214.552381 390.095238-392.533333 390.095238-536.380952 0-214.552381-175.542857-390.095238-390.095238-390.095238S121.904762 224.304762 121.904762 438.857143c0 143.847619 129.219048 321.828571 390.095238 536.380952z" fill="#FFA24A" p-id="65191"></path><path d="M536.380952 1004.495238l-24.380952 19.504762-24.380952-19.504762C221.866667 782.628571 85.333333 597.333333 85.333333 438.857143 85.333333 202.361905 275.504762 12.190476 512 12.190476S938.666667 202.361905 938.666667 438.857143c0 158.47619-136.533333 343.771429-402.285715 565.638095zM865.52381 438.857143C865.52381 243.809524 707.047619 85.333333 512 85.333333S158.47619 243.809524 158.47619 438.857143c0 124.342857 117.028571 290.133333 353.52381 487.619047 236.495238-197.485714 353.52381-363.27619 353.52381-487.619047z" fill="#E68327" p-id="65192"></path><path d="M663.161905 282.819048l31.695238 14.628571c-21.942857 41.447619-46.32381 78.019048-75.580953 107.276191l-26.819047-19.504762c26.819048-26.819048 51.2-63.390476 70.704762-102.4z m-153.6 9.752381l-31.695238 9.752381c14.628571 26.819048 29.257143 53.638095 39.009523 82.895238l34.133334-7.314286c-14.628571-31.695238-26.819048-60.952381-41.447619-85.333333z m-134.095238 9.752381c17.066667 26.819048 34.133333 56.07619 46.323809 87.771428l-31.695238 14.628572c-14.628571-34.133333-31.695238-63.390476-48.761905-90.209524l34.133334-12.190476zM682.666667 219.428571c-97.52381 17.066667-219.428571 26.819048-365.714286 26.819048l9.752381 34.133333c156.038095 0 277.942857-9.752381 373.028571-29.257142L682.666667 219.428571z m-365.714286 224.304762h177.980952v-46.323809h34.133334v46.323809H707.047619v34.133334h-143.847619c34.133333 48.761905 90.209524 95.085714 168.228571 134.095238l-24.380952 31.695238c-82.895238-48.761905-138.971429-104.838095-173.104762-163.352381h-7.314286v182.857143h-34.133333v-182.857143H487.619048c-36.571429 68.266667-95.085714 124.342857-177.980953 168.228571l-17.066666-34.133333c78.019048-34.133333 131.657143-80.457143 168.228571-134.095238H316.952381v-36.571429z" fill="#FFFFFF" p-id="65193"></path></svg>