<?xml version="1.0" standalone="no"?><!DOCTYPE svg PUBLIC "-//W3C//DTD SVG 1.1//EN" "http://www.w3.org/Graphics/SVG/1.1/DTD/svg11.dtd"><svg t="1731561389150" class="icon" viewBox="0 0 1024 1024" version="1.1" xmlns="http://www.w3.org/2000/svg" p-id="113562" xmlns:xlink="http://www.w3.org/1999/xlink" width="128" height="128"><path d="M720.011636 446.999273c-0.605091-0.256-1.256727-0.628364-1.861818-0.884364a17.198545 17.198545 0 0 1-6.306909-4.421818 35.328 35.328 0 0 0-15.290182-3.630546c-17.268364 0-29.370182 9.378909-36.328727 28.741819-4.840727 13.009455-7.261091 30.859636-7.261091 53.550545 0 22.388364 2.420364 40.238545 7.261091 53.550546 6.958545 19.037091 19.083636 28.718545 36.328727 28.718545 16.965818 0 29.044364-9.681455 36.352-28.718545 4.794182-13.312 7.261091-31.162182 7.261091-53.550546 0-22.690909-2.443636-40.541091-7.261091-53.550545a49.664 49.664 0 0 0-12.893091-19.805091zM520.610909 438.062545c-17.245091 0-29.346909 9.378909-36.305454 28.741819-4.840727 13.009455-7.261091 30.859636-7.261091 53.550545 0 22.388364 2.420364 40.238545 7.261091 53.550546 6.958545 19.037091 19.060364 28.718545 36.305454 28.718545 16.942545 0 29.044364-9.681455 36.305455-28.718545 4.864-13.312 7.261091-31.162182 7.261091-53.550546 0-22.690909-2.420364-40.541091-7.261091-53.550545-7.261091-19.362909-19.362909-28.741818-36.305455-28.741819zM364.032 457.122909h-0.907636l-74.728728 96.814546h75.636364z" fill="#9580FF" p-id="113563"></path><path d="M512 0C229.236364 0 0 229.236364 0 512s229.236364 512 512 512 512-229.236364 512-512S794.763636 0 512 0z m216.948364 737.28c-10.24 3.537455-22.178909 5.515636-34.327273 5.515636h-371.665455c-9.704727 0-19.316364-1.28-28.602181-3.793454-85.76-16.802909-148.898909-93.649455-148.89891-182.388364a185.832727 185.832727 0 0 1 107.194182-168.657454 243.293091 243.293091 0 0 1 225.210182-152.506182c72.448 0 140.544 32.023273 186.763636 87.877818a17.454545 17.454545 0 1 1-26.88 22.272 207.127273 207.127273 0 0 0-159.953454-75.240727 208.244364 208.244364 0 0 0-195.095273 136.564363l-2.606545 7.168-7.051637 2.955637a151.04 151.04 0 0 0-92.765091 139.566545 151.482182 151.482182 0 0 0 121.949091 148.410182c7.517091 2.001455 14.056727 2.862545 20.666182 2.862545h371.665455c8.261818 0 16.453818-1.349818 24.273454-4.026181 60.229818-15.825455 101.445818-69.282909 101.445818-130.373819 0-35.770182-21.038545-69.376-49.035636-94.231272 2.653091 12.381091 4.189091 25.925818 4.189091 41.053091 0 33.861818-6.609455 60.811636-19.921455 80.779636-14.196364 20.875636-33.885091 31.464727-58.97309 31.464727-25.437091 0-45.079273-10.612364-58.996364-31.464727-13.312-19.968-19.921455-46.894545-19.921455-80.779636 0-33.838545 6.609455-60.811636 19.921455-80.779637 13.917091-21.178182 33.559273-31.464727 58.996364-31.464727 9.332364 0 17.640727 1.908364 25.506909 4.794182a16.826182 16.826182 0 0 1 8.866909 0.744727c61.812364 24.296727 124.369455 87.016727 124.392727 159.883636a169.355636 169.355636 0 0 1-126.347636 163.793455z m-129.349819-216.925091c0 33.885091-6.679273 60.811636-19.991272 80.779636-14.196364 20.852364-33.861818 31.464727-58.973091 31.464728-25.413818 0-45.079273-10.589091-58.996364-31.464728-13.312-19.968-19.968-46.917818-19.968-80.779636 0-33.838545 6.656-60.811636 19.968-80.779636 13.917091-21.178182 33.582545-31.464727 58.996364-31.464728 25.111273 0 44.776727 10.286545 58.973091 31.464728 13.312 19.968 19.991273 46.917818 19.991272 80.779636z m-339.944727 61.719273v-33.512727l105.588364-136.215273h32.372363v141.591273h32.069819v28.136727h-32.069819V628.363636h-33.582545v-46.289454h-104.378182z" fill="#9580FF" p-id="113564"></path><path d="M202.449455 690.618182l361.355636 330.775273c220.811636-22.202182 400.128-184.738909 447.674182-397.079273l-229.399273-186.856727s94.999273 68.072727 67.374545 176.360727c-23.272727 106.170182-135.261091 128-135.26109 128s-357.818182 1.442909-408.715637 0c-44.357818 2.490182-103.028364-51.2-103.028363-51.2z" fill="#8A7AF9" p-id="113565"></path></svg>