<?xml version="1.0" standalone="no"?><!DOCTYPE svg PUBLIC "-//W3C//DTD SVG 1.1//EN" "http://www.w3.org/Graphics/SVG/1.1/DTD/svg11.dtd"><svg t="1731556405689" class="icon" viewBox="0 0 1024 1024" version="1.1" xmlns="http://www.w3.org/2000/svg" p-id="61258" xmlns:xlink="http://www.w3.org/1999/xlink" width="128" height="128"><path d="M526.70464 402.67776m51.699122 51.699122l0 0q51.699122 51.699122 0 103.398245l-341.373504 341.373505q-51.699122 51.699122-103.398245 0l0 0q-51.699122-51.699122 0-103.398245l341.373505-341.373505q51.699122-51.699122 103.398244 0Z" fill="#07B4FF" p-id="61259"></path><path d="M548.41344 731.79136a53.5552 53.5552 0 0 0 32.11264 10.38336l-0.06144-0.06144c17.36704 0 33.60768-8.25344 43.8272-22.7328l86.34368-122.10176a11.5712 11.5712 0 0 1 9.56416-4.83328l149.504 1.90464h0.63488c20.41856 0 38.76864-11.24352 48.04608-29.42976a53.47328 53.47328 0 0 0-4.87424-56.68864l-89.35424-119.808a11.4688 11.4688 0 0 1-1.67936-10.58816l48.00512-141.59872a53.57568 53.57568 0 0 0-12.96384-55.43936 53.59616 53.59616 0 0 0-55.41888-12.9024l-141.5168 48.00512a11.61216 11.61216 0 0 1-10.6496-1.67936l-119.82848-89.3952a53.57568 53.57568 0 0 0-56.64768-4.83328 53.57568 53.57568 0 0 0-29.2864 48.66048l1.8432 149.48352a11.63264 11.63264 0 0 1-4.8128 9.60512l-122.10176 86.26176a53.59616 53.59616 0 0 0-22.09792 52.44928 53.5552 53.5552 0 0 0 37.23264 43.02848l142.7456 44.3392a11.75552 11.75552 0 0 1 7.61856 7.61856l44.29824 142.848c3.3792 11.01824 10.24 20.6848 19.51744 27.50464z" fill="#FFD600" p-id="61260"></path><path d="M548.41344 731.79136a53.5552 53.5552 0 0 0 32.11264 10.38336l-0.06144-0.06144c17.36704 0 33.60768-8.25344 43.8272-22.7328l86.34368-122.10176a11.5712 11.5712 0 0 1 9.56416-4.83328l149.504 1.90464h0.63488c20.41856 0 38.76864-11.24352 48.04608-29.42976a53.47328 53.47328 0 0 0-4.87424-56.68864l-89.35424-119.808a11.4688 11.4688 0 0 1-1.67936-10.58816l48.00512-141.59872a53.57568 53.57568 0 0 0-12.96384-55.43936 53.59616 53.59616 0 0 0-55.41888-12.9024l-141.5168 48.00512a11.61216 11.61216 0 0 1-10.6496-1.67936l-119.82848-89.3952a53.57568 53.57568 0 0 0-56.64768-4.83328 53.57568 53.57568 0 0 0-29.2864 48.66048l1.8432 149.48352a11.63264 11.63264 0 0 1-4.8128 9.60512l-122.10176 86.26176a53.59616 53.59616 0 0 0-22.09792 52.44928 53.5552 53.5552 0 0 0 37.23264 43.02848l142.7456 44.3392a11.75552 11.75552 0 0 1 7.61856 7.61856l44.29824 142.848c3.3792 11.01824 10.24 20.6848 19.51744 27.50464z" fill="#FFD600" p-id="61261"></path><path d="M580.52608 742.17472l0.16384 24.3712 58.20416-0.45056-41.14432-41.1648-17.22368 17.24416z m-32.11264-10.38336l14.41792-19.6608-14.41792 19.6608z m32.0512 10.32192v-24.3712h-58.81856l41.5744 41.61536 17.24416-17.24416z m43.8272-22.7328l-19.90656-14.09024v0.04096l19.90656 14.04928z m86.34368-122.10176l-19.80416-14.19264-0.08192 0.12288 19.88608 14.06976z m4.1984-3.584l-10.99776-21.77024 10.99776 21.77024z m5.36576-1.2288l-0.34816 24.35072h0.04096l0.3072-24.3712z m149.504 1.88416l-0.32768 24.3712h0.3072v-24.3712z m48.68096-29.42976l21.7088 11.0592-21.7088-11.0592z m-4.87424-56.68864l-19.53792 14.58176h0.02048l19.51744-14.58176z m-89.35424-119.808l19.53792-14.58176-0.04096-0.04096-19.49696 14.60224z m-2.1504-5.09952l24.064-3.7888-24.064 3.7888z m0.47104-5.48864l23.06048 7.8848 0.02048-0.06144-23.08096-7.82336z m48.00512-141.59872l23.08096 7.82336-23.08096-7.82336z m-12.96384-55.43936l17.26464-17.2032-0.02048-0.02048-17.24416 17.22368z m-55.41888-12.9024l-7.80288-23.08096h-0.02048l7.82336 23.08096z m-141.5168 48.00512l-7.82336-23.08096h-0.04096l7.8848 23.08096z m-5.5296 0.49152l3.76832-24.08448-3.76832 24.08448z m-5.12-2.17088l-14.58176 19.53792 0.02048 0.02048 14.5408-19.53792z m-119.82848-89.3952l-14.6432 19.47648 0.06144 0.04096 14.58176-19.51744z m-27.648-10.5472l-2.048 24.28928 2.048-24.28928z m-28.99968 5.71392l11.0592 21.7088 0.08192-0.02048-11.14112-21.7088z m-21.62688 20.13184l-20.8896-12.57472 20.8896 12.57472z m-7.65952 28.52864l24.3712-0.3072v-0.1024l-24.3712 0.4096z m1.8432 149.48352l-24.3712 0.28672v0.04096l24.3712-0.32768z m-1.2288 5.38624l-21.77024-10.93632 21.77024 10.93632z m-3.584 4.21888l14.06976 19.90656 0.2048-0.16384-14.27456-19.74272z m-122.10176 86.26176l-14.04928-19.92704-0.04096 0.02048 14.09024 19.90656z m-22.09792 52.44928l24.08448-3.72736v-0.1024l-24.08448 3.82976z m37.23264 43.02848l7.22944-23.26528-0.08192-0.02048-7.14752 23.28576z m142.7456 44.3392l7.43424-23.22432-0.2048-0.04096-7.20896 23.26528z m7.61856 7.61856l23.28576-7.22944-0.06144-0.2048-23.22432 7.43424z m44.29824 142.848l23.30624-7.14752-0.04096-0.08192-23.26528 7.22944z m51.44576 13.5168a29.20448 29.20448 0 0 1-17.5104-5.67296l-28.83584 39.3216c13.53728 9.91232 29.9008 15.21664 46.6944 15.07328l-0.34816-48.7424z m-17.1008 41.55392l0.04096 0.04096 34.46784-34.46784-0.04096-0.04096-34.46784 34.44736z m41.12384-54.02624a28.9792 28.9792 0 0 1-23.90016 12.41088v48.7424a77.7216 77.7216 0 0 0 63.75424-33.0752L604.3648 705.3312z m86.38464-122.12224l-86.36416 122.08128 39.81312 28.16 86.34368-122.10176-39.79264-28.13952z m13.1072-11.264c-5.18144 2.60096-9.64608 6.43072-13.02528 11.14112l39.6288 28.38528a12.82048 12.82048 0 0 1-4.64896 3.97312l-21.95456-43.52z m16.6912-3.87072a35.92192 35.92192 0 0 0-16.71168 3.85024l21.97504 43.52a12.8 12.8 0 0 1-5.9392 1.37216l0.67584-48.7424z m149.44256 1.90464l-149.48352-1.90464-0.6144 48.7424 149.504 1.90464 0.6144-48.7424z m0.34816 0h-0.65536v48.7424h0.65536v-48.7424z m26.33728-16.13824c-5.12 10.0352-15.07328 16.13824-26.33728 16.13824v48.7424c29.5936 0 56.32-16.384 69.75488-42.72128l-43.4176-22.15936z m-2.6624-31.00672c6.81984 9.15456 7.82336 20.91008 2.6624 31.00672l43.4176 22.15936a77.84448 77.84448 0 0 0-7.0656-82.37056l-39.03488 29.20448z m-89.3952-119.84896l89.35424 119.808 39.07584-29.12256-89.35424-119.82848-39.07584 29.14304z m-6.69696-15.85152c0.9216 5.75488 3.21536 11.22304 6.71744 15.89248l39.0144-29.22496a12.9024 12.9024 0 0 1 2.41664 5.7344l-48.128 7.5776z m1.49504-17.2032a35.84 35.84 0 0 0-1.49504 17.2032l48.14848-7.59808a12.9024 12.9024 0 0 1-0.53248 6.18496l-46.12096-15.7696z m47.98464-141.5168l-48.00512 141.59872 46.16192 15.64672 48.00512-141.59872-46.16192-15.64672z m-7.12704-30.39232c8.11008 8.13056 10.77248 19.61984 7.12704 30.39232l46.16192 15.64672a77.94688 77.94688 0 0 0-18.78016-80.46592l-34.5088 34.4064z m-30.37184-7.02464a29.22496 29.22496 0 0 1 30.39232 7.04512l34.46784-34.46784a77.96736 77.96736 0 0 0-80.4864-18.75968l15.62624 46.1824z m-141.47584 47.98464l141.5168-48.00512-15.6672-46.16192-141.5168 48.00512 15.6672 46.16192z m-17.14176 1.47456c5.77536 0.9216 11.6736 0.4096 17.2032-1.49504l-15.7696-46.12096a12.75904 12.75904 0 0 1 6.10304-0.53248l-7.53664 48.14848z m-15.91296-6.67648c4.68992 3.4816 10.1376 5.77536 15.91296 6.69696l7.53664-48.16896c2.048 0.32768 3.9936 1.1264 5.65248 2.37568l-29.10208 39.1168z m-119.84896-89.43616l119.808 89.41568 29.16352-39.05536-119.808-89.41568-29.16352 39.05536z m-15.11424-5.77536c5.44768 0.45056 10.67008 2.4576 15.0528 5.7344l29.2864-38.97344a77.94688 77.94688 0 0 0-40.20224-15.33952l-4.13696 48.57856z m-15.81056 3.11296c4.87424-2.49856 10.3424-3.584 15.81056-3.11296l4.13696-48.57856a77.94688 77.94688 0 0 0-42.20928 8.31488l22.26176 43.37664z m-11.8784 10.99776c2.82624-4.66944 6.90176-8.47872 11.776-10.9568L462.4384 98.26304a77.94688 77.94688 0 0 0-31.45728 29.2864l41.75872 25.12896z m-4.17792 15.5648c-0.1024-5.48864 1.35168-10.8544 4.17792-15.5648l-41.7792-25.12896a77.94688 77.94688 0 0 0-11.14112 41.49248l48.7424-0.8192z m1.8432 149.58592l-1.8432-149.504-48.7424 0.6144 1.8432 149.504 48.7424-0.6144z m-3.82976 16.62976c2.60096-5.16096 3.93216-10.89536 3.85024-16.67072l-48.7424 0.67584a12.6976 12.6976 0 0 1 1.35168-5.87776l43.54048 21.87264z m-11.07968 13.04576c4.68992-3.39968 8.4992-7.86432 11.07968-13.04576l-43.54048-21.87264a12.73856 12.73856 0 0 1 3.8912-4.608l28.5696 39.5264z m-122.30656 86.38464l122.10176-86.24128-28.13952-39.81312-122.10176 86.26176 28.13952 39.81312z m-12.0832 28.73344a29.22496 29.22496 0 0 1 12.0832-28.73344l-28.16-39.79264a77.96736 77.96736 0 0 0-32.07168 76.1856l48.128-7.65952z m6.77888 14.7456a29.20448 29.20448 0 0 1-6.7584-14.6432l-48.18944 7.45472c2.2528 14.45888 8.4992 28.01664 18.08384 39.09632l36.864-31.90784z m13.5168 8.8064a29.22496 29.22496 0 0 1-13.5168-8.8064l-36.864 31.90784c9.58464 11.0592 22.09792 19.21024 36.08576 23.51104l14.29504-46.592z m142.82752 44.38016l-142.7456-44.3392-14.45888 46.55104 142.7456 44.3392 14.45888-46.55104z m14.7456 8.9088a36.12672 36.12672 0 0 0-14.5408-8.86784l-14.848 46.44864a12.61568 12.61568 0 0 1-5.07904-3.11296l34.46784-34.46784z m8.86784 14.5408a36.12672 36.12672 0 0 0-8.86784-14.5408l-34.46784 34.46784a12.65664 12.65664 0 0 1-3.09248-5.07904l46.42816-14.82752z m44.35968 143.0528l-44.29824-142.848-46.55104 14.4384 44.27776 142.848 46.57152-14.4384z m10.6496 15.07328a29.184 29.184 0 0 1-10.6496-14.99136l-46.592 14.27456c4.9152 16.05632 14.86848 30.1056 28.40576 40.01792l28.83584-39.30112z" fill="#FF9900" p-id="61262"></path><path d="M595.18976 622.01856a33.28 33.28 0 0 1-32.0512-23.51104l-27.50464-88.6784a7.31136 7.31136 0 0 0-4.7104-4.75136l-88.6784-27.52512a33.28 33.28 0 0 1-23.10144-26.70592c-2.02752-12.6976 3.2768-25.1904 13.7216-32.5632l75.81696-53.57568a7.22944 7.22944 0 0 0 2.99008-5.95968l-1.14688-92.81536a33.28 33.28 0 0 1 18.18624-30.208 33.28 33.28 0 0 1 35.18464 3.01056l74.40384 55.5008a7.20896 7.20896 0 0 0 6.61504 1.024l87.8592-29.77792a33.28 33.28 0 0 1 34.42688 7.9872c9.09312 9.13408 12.1856 22.26176 8.04864 34.42688L745.472 395.81696a7.10656 7.10656 0 0 0 1.024 6.5536l55.5008 74.40384A33.1776 33.1776 0 0 1 805.00736 512a33.28 33.28 0 0 1-29.83936 18.26816h-0.4096l-92.81536-1.18784a7.168 7.168 0 0 0-5.9392 3.01056L622.3872 607.8464c-6.3488 9.0112-16.44544 14.1312-27.2384 14.1312l0.04096 0.02048z" fill="#FC6084" p-id="61263"></path><path d="M466.39104 443.392l76.30848 23.69536c14.7456 4.62848 26.35776 16.15872 30.9248 30.9248l23.69536 76.32896 46.16192-65.24928a47.08352 47.08352 0 0 1 38.97344-19.8656l79.93344 1.024-47.77984-64.02048a46.8992 46.8992 0 0 1-6.84032-43.2128l25.66144-75.69408-75.71456 25.66144a47.02208 47.02208 0 0 1-43.2128-6.84032l-63.97952-47.77984 1.00352 79.91296a47.06304 47.06304 0 0 1-19.8656 38.97344l-65.24928 46.12096z m128.8192 178.62656a33.28 33.28 0 0 1-32.07168-23.51104l-27.50464-88.6784a7.31136 7.31136 0 0 0-4.7104-4.75136l-88.6784-27.52512a33.28 33.28 0 0 1-23.10144-26.70592c-2.02752-12.6976 3.2768-25.1904 13.7216-32.5632l75.81696-53.57568a7.22944 7.22944 0 0 0 2.99008-5.95968l-1.14688-92.81536a33.28 33.28 0 0 1 18.18624-30.208 33.28 33.28 0 0 1 35.18464 3.01056l74.40384 55.5008a7.20896 7.20896 0 0 0 6.61504 1.024l87.8592-29.77792a33.28 33.28 0 0 1 34.42688 7.9872c9.09312 9.13408 12.1856 22.26176 8.04864 34.42688L745.472 395.81696a7.10656 7.10656 0 0 0 1.024 6.5536l55.5008 74.40384A33.1776 33.1776 0 0 1 805.00736 512a33.28 33.28 0 0 1-29.83936 18.26816h-0.4096l-92.81536-1.18784a7.168 7.168 0 0 0-5.9392 3.01056L622.3872 607.8464c-6.3488 9.0112-16.44544 14.1312-27.2384 14.1312l0.04096 0.02048z" fill="#FFA4AC" p-id="61264"></path><path d="M123.63776 40.96c48.9472 95.39584 106.31168 122.2656 177.64352 104.48896-66.1504 31.98976-83.21024 90.35776-41.59488 187.98592-49.19296-92.2624-104.09984-129.08544-177.7664-106.78272C145.85856 193.10592 164.6592 137.46176 123.63776 40.96zM789.27872 758.0672c6.7584 71.14752 35.6352 101.96992 84.19328 108.56448-48.86528 3.4816-73.8304 35.4304-72.17152 106.14784-7.65952-69.28384-32.58368-105.65632-83.70176-110.01856 47.86176-4.99712 73.25696-34.816 71.68-104.69376z" fill="#FFD600" p-id="61265"></path><path d="M609.23904 72.192a19.92704 19.92704 0 1 1-39.87456 0 19.92704 19.92704 0 0 1 39.87456 0z m72.72448 201.17504a11.28448 11.28448 0 1 1-22.58944 0 11.28448 11.28448 0 0 1 22.58944 0z m22.6304-221.10208a11.32544 11.32544 0 1 1-22.65088 0 11.32544 11.32544 0 0 1 22.65088 0zM438.59968 935.89504a19.90656 19.90656 0 1 0-39.81312-0.02048 19.90656 19.90656 0 0 0 39.81312 0z m72.74496-201.19552a11.34592 11.34592 0 1 0-22.67136 0 11.34592 11.34592 0 0 0 22.67136 0z m22.6304 221.10208a11.30496 11.30496 0 1 0-22.6304 0 11.30496 11.30496 0 0 0 22.6304 0z" fill="#FFFFFF" p-id="61266"></path><path d="M146.14528 570.30656a19.92704 19.92704 0 1 0-39.8336 0 19.92704 19.92704 0 0 0 39.8336 0z m72.74496-201.19552a11.30496 11.30496 0 1 0-22.60992 0 11.30496 11.30496 0 0 0 22.60992 0z m22.60992 221.10208a11.30496 11.30496 0 1 0-22.60992 0 11.30496 11.30496 0 0 0 22.60992 0z" fill="#FC6084" p-id="61267"></path></svg>