<?xml version="1.0" standalone="no"?><!DOCTYPE svg PUBLIC "-//W3C//DTD SVG 1.1//EN" "http://www.w3.org/Graphics/SVG/1.1/DTD/svg11.dtd"><svg t="1731561276709" class="icon" viewBox="0 0 2645 1024" version="1.1" xmlns="http://www.w3.org/2000/svg" p-id="108547" xmlns:xlink="http://www.w3.org/1999/xlink" width="330.625" height="128"><path d="M750.67904 150.747136h1596.327936V639.95904c0 128.843776-128.408576 233.293824-286.80704 233.293824H463.872V384.041984c0-128.8448 128.408576-233.294848 286.80704-233.294848z" fill="#EE7531" p-id="108548"></path><path d="M362.94144 149.56544L512.505856 0l149.566464 149.56544H874.43456v212.025344L1024 510.818304l-149.566464 149.56544v212.025344H662.07232L512.505856 1024l-149.56544-149.56544H149.56544V662.41024L0 512.16896l149.56544-149.56544V149.56544h213.376z" fill="#08A0F4" p-id="108549"></path><path d="M571.251712 731.285504l202.571776-438.90688h-103.9872l-155.30496 332.89216h-3.714048L360.578048 292.71552H251.189248l196.83328 438.904832 123.229184-0.334848z" fill="#FFFFFF" p-id="108550"></path><path d="M1080.139776 372.999168v-30.408704h64.004096v-82.158592h95.125504v82.158592h64.004096v30.408704h-223.133696z m0 370.779136v-30.409728l223.132672-19.7376v30.942208l-223.132672 19.20512z m29.94688-69.354496c-5.486592-41.962496-9.890816-84.641792-13.211648-128.038912-3.331072-43.387904-5.972992-87.842816-7.926784-133.373952h79.270912a4668.643328 4668.643328 0 0 0 7.632896 131.772416c3.129344 43.39712 7.432192 86.60992 12.91776 129.640448h-78.683136z m85.143552 0a2868.9152 2868.9152 0 0 0 12.331008-129.640448 4738.73408 4738.73408 0 0 0 7.632896-131.772416h79.270912c-1.963008 45.530112-4.605952 89.985024-7.926784 133.373952-3.331072 43.39712-7.735296 86.076416-13.211648 128.038912h-78.096384z m124.483584-140.909568c0-10.294272 3.908608-18.813952 11.744256-25.556992 7.826432-6.74304 17.414144-10.119168 28.772352-10.119168h57.544704V260.431872h91.60192v93.361152h127.42144v30.409728h-127.42144v113.634304h81.619968c10.954752 0 20.451328 3.376128 28.479488 10.119168 8.01792 6.74304 12.03712 15.263744 12.03712 25.556992v198.593536c0 9.935872-4.0192 18.280448-12.03712 25.03168-8.02816 6.735872-17.523712 10.112-28.479488 10.112H1360.2304c-11.358208 0-20.94592-3.376128-28.772352-10.112-7.834624-6.752256-11.744256-15.095808-11.744256-25.03168V533.51424z m219.610112 15.004672c0-5.685248-2.15552-10.486784-6.459392-14.404608-4.312064-3.908608-9.790464-5.86752-16.442368-5.86752h-82.205696c-6.26688 0-11.652096 1.958912-16.14848 5.86752-4.504576 3.917824-6.75328 8.720384-6.75328 14.404608v167.517184c0 6.043648 2.24768 11.020288 6.75328 14.938112 4.496384 3.909632 9.880576 5.86752 16.14848 5.86752h82.205696c6.651904 0 12.130304-1.957888 16.442368-5.86752 4.302848-3.917824 6.459392-8.894464 6.459392-14.938112V548.518912zM1850.535936 262.565888v221.400064h362.297344v30.409728h-155.019264c17.221632 44.812288 38.259712 88.209408 63.12448 130.171904 24.853504 41.969664 54.315008 83.223552 88.372224 123.769856h-105.107456c-61.462528-79.666176-107.65824-164.31616-138.57792-253.94176h-115.089408v203.259904c0 5.686272 2.147328 10.48576 6.459392 14.403584 4.302848 3.909632 9.587712 5.869568 15.853568 5.869568h72.81152v30.40768H1800.2944c-11.036672 0-20.294656-3.38432-27.78112-10.135552-7.487488-6.760448-11.230208-15.122432-11.230208-25.073664V514.37568h-82.20672v-30.409728h82.20672V262.565888h89.252864z m323.542016 8.00256c-40.718336 65.086464-88.866816 127.505408-144.448512 187.256832h-105.107456c61.068288-60.818432 112.538624-123.237376 154.431488-187.256832h95.12448z" fill="#FFFFFF" p-id="108551"></path></svg>