<?xml version="1.0" standalone="no"?><!DOCTYPE svg PUBLIC "-//W3C//DTD SVG 1.1//EN" "http://www.w3.org/Graphics/SVG/1.1/DTD/svg11.dtd"><svg t="1731555671388" class="icon" viewBox="0 0 1024 1024" version="1.1" xmlns="http://www.w3.org/2000/svg" p-id="18200" xmlns:xlink="http://www.w3.org/1999/xlink" width="128" height="128"><path d="M0 499.435866C0 0 0 0 492.593444 0c531.40471 0 531.40471 0 531.40471 524.562288 0 499.437712 0 499.437712-492.593444 499.437712C0 1024 0 1024 0 499.435866z" fill="#FE0000" p-id="18201"></path><path d="M888.87417 322.937939c-30.436407 123.374072-154.905341 15.311442-228.155811 111.437684 186.467996 3.437828 336.968043 43.624593 300.531131 270.061491-27.500775 170.999618-109.251653 263.250456-313.844867 250.123198 70.124669-145.125441 276.374022-223.059998 160.782143-406.686525-137.280473 140.312113-249.968108 326.373921-485.9375 430.998724 80.532314-194.748693 269.969175-252.562172 328.842436-451.621997-234.311406 73.623425-293.936115 377.74932-598.091551 364.186333 141.312812-137.625733 301.718308-206.437676 386.467593-359.936129-176.717637-54.187328-190.282471 207.623007-367.998962 152.436825C150.84346 569.001103 243.061065 482.876319 368.155898 414.625654 33.624983 367.123811 33.624983 367.123811 130.999329 123.001118c139.499737 78.874328 289.093246 106.624355 449.123941 103.875201 110.187732-1.87585 234.062154-25.501222 308.7509 96.06162z" fill="#FEFEFE" p-id="18202"></path><path d="M888.87417 322.937939c-202.436724-1.063474-405.46796-11.812686-607.155083-0.062774-168.968678 9.874062-161.875158-87.374736-150.68837-199.874047-0.031387 0-8.937983 9.061685-8.937983 9.061685 256.094162-66.374815 513.499203-42.623894 770.998406-11.188633 26.533309 67.938639 82.939901 136.501331-4.21697 202.063769z" fill="#FE0000" p-id="18203"></path><path d="M888.674768 120.938791c-256.998853 3.749854-513.999553 7.436933-770.998406 11.188633C373.019076 14.691082 630.329956 31.627276 888.674768 120.938791zM242.250536 206.374902H789.50027c0.123703 10.688284 0.249252 21.374721 0.406188 32.000231H249.25174a7563.244946 7563.244946 0 0 1-7.001204-32.000231z" fill="#FEFEFE" p-id="18204"></path><path d="M886.294876 332.935704s44.944704-215.975709-6.956893-214.640828c-51.897905 1.334882-46.826094 254.755588 6.956893 214.640828z" fill="#FEFFFF" p-id="18205"></path></svg>