<?xml version="1.0" standalone="no"?><!DOCTYPE svg PUBLIC "-//W3C//DTD SVG 1.1//EN" "http://www.w3.org/Graphics/SVG/1.1/DTD/svg11.dtd"><svg t="1731560978617" class="icon" viewBox="0 0 1024 1024" version="1.1" xmlns="http://www.w3.org/2000/svg" p-id="90559" xmlns:xlink="http://www.w3.org/1999/xlink" width="128" height="128"><path d="M938.666667 842.666667v-512a85.333333 85.333333 0 0 0-85.333334-85.333334H170.666667a85.333333 85.333333 0 0 0-85.333334 85.333334v512c0 47.146667 38.101333 85.333333 85.205334 85.333333h683.136a85.034667 85.034667 0 0 0 84.992-85.333333z" fill="#FED3FF" p-id="90560"></path><path d="M512 407.466667a29.866667 29.866667 0 0 1 29.866667 29.866666v277.333334a29.866667 29.866667 0 1 1-59.733334 0v-277.333334a29.866667 29.866667 0 0 1 29.866667-29.866666z" fill="#28336B" p-id="90561"></path><path d="M386.218667 585.045333a29.866667 29.866667 0 0 1 42.069333 3.84L512 689.322667l83.712-100.437334a29.866667 29.866667 0 1 1 45.909333 38.229334l-106.666666 128a29.866667 29.866667 0 0 1-45.909334 0l-106.666666-128a29.866667 29.866667 0 0 1 3.84-42.069334zM661.12 74.88a29.866667 29.866667 0 0 1 0 42.24l-149.333333 149.333333a29.866667 29.866667 0 0 1-42.24-42.24l149.333333-149.333333a29.866667 29.866667 0 0 1 42.24 0z" fill="#28336B" p-id="90562"></path><path d="M298.88 96.213333a29.866667 29.866667 0 0 0 0 42.24l128 128a29.866667 29.866667 0 0 0 42.24-42.24l-128-128a29.866667 29.866667 0 0 0-42.24 0z" fill="#28336B" p-id="90563"></path><path d="M170.666667 275.2a55.466667 55.466667 0 0 0-55.466667 55.466667v512c0 30.677333 24.746667 55.466667 55.338667 55.466666h683.093333c30.506667 0 55.168-24.704 55.168-55.466666v-512a55.466667 55.466667 0 0 0-55.466667-55.466667H170.666667z m-115.2 55.466667A115.2 115.2 0 0 1 170.666667 215.466667h682.666666a115.2 115.2 0 0 1 115.2 115.2v512c0 63.445333-51.072 115.2-114.858666 115.2H170.581333a115.114667 115.114667 0 0 1-115.114666-115.2v-512z" fill="#28336B" p-id="90564"></path></svg>