<?xml version="1.0" standalone="no"?><!DOCTYPE svg PUBLIC "-//W3C//DTD SVG 1.1//EN" "http://www.w3.org/Graphics/SVG/1.1/DTD/svg11.dtd"><svg t="1731492478130" class="icon" viewBox="0 0 1024 1024" version="1.1" xmlns="http://www.w3.org/2000/svg" p-id="40089" xmlns:xlink="http://www.w3.org/1999/xlink" width="128" height="128"><path d="M63.9 211.8h358.9c0-24.3 8.8-45.1 26.3-62.6s38.7-26.2 63.4-26.2 45.8 8.7 63.4 26.2 26.3 38.4 26.3 62.6h358.9v89.9H916V792H658.1l30.3 103.8-89.1 0.1L569 792H456.1l-30.4 104.1-89-0.8L366.8 792H109V301.8H63.9v-90z m135.4 90v401.5h626.4V301.8H199.3z m306.2 305.1c-4.3 4.3-9.5 6.4-15.6 6.4s-11.3-2.1-15.6-6.4c-4.3-4.3-6.4-9.3-6.4-15V413.1c0-6.4 2.1-11.8 6.4-16.1 4.3-4.3 9.5-6.4 15.6-6.4s11.3 2.1 15.6 6.4l63.4 62.1c9.3 10 15.8 17.1 19.3 21.4 5.7 7.9 8.6 15 8.6 21.4s-2.9 13.6-8.6 21.4c-3.6 5-10 12.1-19.3 21.4l-63.4 62.2z" fill="#5D84FB" p-id="40090"></path></svg>