<?xml version="1.0" standalone="no"?><!DOCTYPE svg PUBLIC "-//W3C//DTD SVG 1.1//EN" "http://www.w3.org/Graphics/SVG/1.1/DTD/svg11.dtd"><svg t="1731556093518" class="icon" viewBox="0 0 1024 1024" version="1.1" xmlns="http://www.w3.org/2000/svg" p-id="40154" xmlns:xlink="http://www.w3.org/1999/xlink" width="128" height="128"><path d="M663.04 80H156.16A92.16 92.16 0 0 0 64 172.16v506.88a92.16 92.16 0 0 0 92.16 92.16h506.88a92.16 92.16 0 0 0 92.16-92.16V172.16A92.16 92.16 0 0 0 663.04 80z" fill="#0065F3" p-id="40155"></path><path d="M855.04 272H348.16A92.16 92.16 0 0 0 256 364.16v506.88a92.16 92.16 0 0 0 92.16 92.16h506.88a92.16 92.16 0 0 0 92.16-92.16V364.16A92.16 92.16 0 0 0 855.04 272z" fill="#82B6FA" opacity=".4" p-id="40156"></path><path d="M356.16 288h506.88a84.16 84.16 0 0 1 84.16 84.16v506.88a84.16 84.16 0 0 1-84.16 84.16H356.16A84.16 84.16 0 0 1 272 879.04V372.16A84.16 84.16 0 0 1 356.16 288z m607.04 84.16A100.16 100.16 0 0 0 863.04 272H356.16A100.16 100.16 0 0 0 256 372.16v506.88a100.16 100.16 0 0 0 100.16 100.16h506.88a100.16 100.16 0 0 0 100.16-100.16V372.16z" fill="#FFFFFF" opacity=".4" p-id="40157"></path><path d="M456.976 489.6h286.016v200.224H456.976V489.6zM758.816 432H441.184A41.232 41.232 0 0 0 400 473.28v232.24a41.232 41.232 0 0 0 41.184 41.28h99.84v56.976h-70.4a14.192 14.192 0 0 0 0 28.384h257.888a14.192 14.192 0 0 0 0-28.384H657.28v-56.96h101.536A41.232 41.232 0 0 0 800 705.52V473.28A41.232 41.232 0 0 0 758.816 432z m13.344 286.656H428.464V461.28H772.16v257.376z" fill="#FFFFFF" p-id="40158"></path></svg>