<?xml version="1.0" encoding="utf-8"?>
<!-- Generator: Adobe Illustrator 28.0.0, SVG Export Plug-In . SVG Version: 6.00 Build 0)  -->
<svg width="256" height="256" version="1.1" id="Layer_01"
	 xmlns="http://www.w3.org/2000/svg" xmlns:xlink="http://www.w3.org/1999/xlink" x="0px" y="0px" viewBox="0 0 256 256"
	 style="enable-background:new 0 0 256 256;" xml:space="preserve">
<style type="text/css">
	.st0{fill:#171E24;}
	.st1{fill:#FED800;}
	.st2{fill:#FEFEFE;}
	.st3{fill:#FDFDFD;}
	.st4{fill:#FDD800;}
	.st5{fill:#FEE100;}
	.st6{fill:#121A25;}
	.st7{fill:#0D1626;}
	.st8{fill:#121920;}
	.st9{fill:#3B3B1E;}
	.st10{fill:#40411C;}
	.st11{fill:#0C131A;}
	.st12{fill:#0D141B;}
	.st13{fill:#FEDF00;}
	.st14{fill:#121A20;}
	.st15{fill:#0F161D;}
	.st16{fill:#0C1326;}
	.st17{fill:#151C24;}
	.st18{fill:#101825;}
	.st19{fill:#0F161C;}
	.st20{fill:#10171D;}
	.st21{fill:#080F16;}
	.st22{fill:#0D1625;}
	.st23{fill:#0B1319;}
	.st24{fill:#CCCDCF;}
	.st25{fill:#091017;}
	.st26{fill:#0E151B;}
	.st27{fill:#0B1218;}
	.st28{fill:#0B1219;}
	.st29{fill:#080F26;}
	.st30{fill:#0E151C;}
	.st31{fill:#0D141A;}
	.st32{fill:#A08E0E;}
	.st33{fill:#726915;}
	.st34{fill:#7F7213;}
	.st35{fill:#192026;}
	.st36{fill:#12191F;}
	.st37{fill:#081016;}
	.st38{fill:#1B2228;}
	.st39{fill:#1C2329;}
	.st40{fill:#1B2123;}
	.st41{fill:#0A1326;}
</style>
<g id="Layer_02">
	<path class="st0" d="M221,256H35c-19.3,0-35-15.7-35-35V35C0,15.7,15.7,0,35,0h186c19.3,0,35,15.7,35,35v186
		C256,240.3,240.3,256,221,256z"/>
	<path class="st1" d="M117.1,162c0-3.2-0.1-6.3-0.1-9.5c0-32.1,0-64.3-0.1-96.4c0-2,0.4-2.6,2.5-2.6c9.5,0.1,19,0.1,28.5,0
		c1.6,0,2.2,0.4,2.7,2.1c6,23,12.2,46,18.3,69c0.2,0.7,0.4,1.4,0.8,2.9c0.8-3,1.5-5.3,2.1-7.7c5.6-21.2,11.1-42.3,16.6-63.5
		c0.5-2,1.3-2.8,3.5-2.8c9.5,0.2,19,0.1,28.5,0c1.6,0,2.1,0.4,2.1,2.1c0,35.1,0,70.1-0.1,105.2c0,0.6,0.5,1.4-0.5,1.7
		c-6.5-0.3-13-0.3-19.5,0c-1.1-0.6-0.5-1.6-0.5-2.4c0-26.6,0-53.3,0-79.9c0-0.7,0-1.5,0-2.2c-0.1,0-0.1,0-0.2,0
		c-2.4,9.5-4.8,18.9-7.1,28.4c-4.6,18.1-9.1,36.3-13.7,54.4c-0.2,0.6,0.1,1.6-1,1.8c-7-0.3-14-0.2-21-0.1c-2.1-6.2-3.4-12.6-5-18.9
		c-5-19.7-10-39.4-14.9-59.1c-0.1-0.5-0.3-0.9-0.5-1.4c-0.8-0.8-0.8-1.8-0.6-2.9c-0.2-0.8,0.3-1.8-1-2c-0.3,0.9-0.2,1.8-0.2,2.7
		c0,26.2,0,52.4,0,78.6c0,2.9,0,2.9-3,2.9C128.2,162.1,122.6,162.5,117.1,162L117.1,162z"/>
	<path class="st2" d="M34,107.9c0-17.3,0-34.7,0-52c0-1.9,0.4-2.5,2.4-2.5c23.4,0.1,46.8,0.1,70.2,0c2,0,2.5,0.6,2.4,2.5
		c-0.1,4.3-0.2,8.7,0,13c0.1,2.4-0.7,2.6-2.8,2.6c-16.1-0.1-32.2,0-48.2-0.1c-2.1,0-2.6,0.5-2.6,2.6c0.1,7.3,0.1,14.7,0,22
		c0,1.7,0.5,2,2.1,2c13.9-0.1,27.8,0,41.7-0.1c1.9,0,2.3,0.5,2.3,2.3c-0.1,4.5-0.2,9,0,13.5c0.1,2-0.6,2.3-2.4,2.3
		c-13.6-0.1-27.2,0.1-40.7-0.1c-2.7,0-3,0.8-3,3.2c0.1,13.7,0,27.5,0.1,41.2c0,1.7-0.3,2.3-2.1,2.2c-5.7-0.1-11.3-0.1-17,0
		c-1.9,0-2.5-0.4-2.5-2.4C34.1,142.7,34,125.3,34,107.9L34,107.9z"/>
	<path class="st1" d="M127.6,188.5c-1.8,7.9-3.6,15.7-5.2,23.6c-0.4,1.8-1,2.4-2.9,2.4c-4.8-0.1-4.8,0-5.9-4.8
		c-1.5-6.5-3-12.9-4.5-19.4c-0.9-0.9-0.5-2.2-0.8-3.2c-0.1,0.4,0.1,0.7,0.1,1.1c-0.2,8.5-0.1,17.1-0.2,25.6c0,0.3-0.2,0.4-0.3,0.6
		c-4,0-5.9-1.9-5.9-5.9c0-9.2,0-18.3,0-27.5c0-1.6,0.3-2.2,2-2.1c2,0.1,4,0.1,6,0c1.7-0.1,2.3,0.5,2.6,2.1
		c1.6,7.7,3.3,15.3,4.9,22.9c0.1,0.4,0.3,0.8,0.4,1.2c0.5,0.1,0.2,0.7,0.5,0.9c-0.3-0.4-0.2-0.7,0.1-1c1.8-7.9,3.6-15.9,5.2-23.8
		c0.4-1.9,1.1-2.5,2.9-2.3c2,0.1,4,0.1,6,0c1.6-0.1,1.9,0.5,1.9,2c-0.1,10.5-0.1,20.9,0,31.4c0,1.9-0.6,2.3-2.3,2.1
		c-1.2-0.1-2.5,0-3.7,0c-0.6-0.7-0.3-1.6-0.3-2.4c0-7,0-14.1,0-21.1c0-1.1,0-2.1-0.2-3.2c0-0.3,0.1-0.6,0.2-1c0,0,0,0,0,0
		C128,187.4,128.1,188.1,127.6,188.5L127.6,188.5z"/>
	<path class="st3" d="M197.9,202.3c-0.1,0.9-0.3,1.8-0.4,2.7c-0.7,6.3-4.8,9.9-10.9,9.9c-6.1,0-10.1-3.6-10.5-10
		c-0.3-4.8-0.2-9.7-0.2-14.5c0-3.2,0.1-6.3,0-9.5c0-1.4,0.2-2.1,1.8-2.1c4.7,0,4.7-0.1,4.7,4.6c0,6.5,0,13,0,19.5
		c0,2.1,0.1,4.4,2.6,5.5c1.2,0,2.4-0.1,3.5,0c2.7-1.3,2.6-3.8,2.7-6.2c0.1-6.8,0.2-13.6-0.1-20.4c-0.1-2.7,0.8-3.4,3.2-3
		c1.1,0.2,2.3,0.1,3.5,0.1c0.7,0.2,0.5,0.8,0.5,1.3c0,7,0,13.9,0,20.9C198.2,201.6,198.2,202,197.9,202.3L197.9,202.3z"/>
	<path class="st4" d="M161.6,196.2c1.3-2.2,2.8-4.3,3.9-6.6c0.9-1.8,2-2.4,3.9-2.2c1.2,0.1,2.5,0,4.2,0c-2,3.3-3.8,6.5-5.8,9.5
		c-0.8,1.2-0.7,2.2-0.1,3.4c2.2,4.6,4.2,9.2,6.3,13.8c-0.3,0.2-0.4,0.3-0.5,0.3c-4,0.2-6.7-1.5-8.3-5.1c-0.6-1.3-1-2.6-1.7-3.9
		c-0.4-0.7-0.3-2.3-1.4-1.9c-1,0.4-2.2,1.2-2.1,2.8c0.1,2.2-0.1,4.3,0,6.5c0.1,1.3-0.4,1.7-1.7,1.7c-4.8,0.1-4.8,0.2-4.8-4.6
		c0-10.2,0.1-20.5,0-30.7c0-1.9,0.4-2.6,2.4-2.5c4,0.1,4,0,4.1,4.1c0,4.9,0,9.8,0.1,14.7c0.4,0.3,0.4,0.8,0.4,1.3
		c0,0.3-0.3,0.6-0.2,0.9C160.6,197.1,160.6,196.2,161.6,196.2L161.6,196.2z"/>
	<path class="st3" d="M203.1,196.8c0-5.2,0.1-10.5,0-15.7c0-1.5,0.3-2.3,2-2.1c2.7,0.2,5.5,0,8.2,0.1c4.9,0.2,7.8,2.8,8.8,7.6
		c0.6,3.2,0.5,6.3-0.9,9.3c-1.7,3.9-5,5.6-9,5.5c-2.4,0-2.8,0.8-2.6,2.9c0.2,2.8,0,5.7,0.1,8.5c0,1.3-0.3,1.7-1.7,1.7
		c-4.9,0.1-4.9,0.2-4.9-4.7C203.1,205.5,203.1,201.1,203.1,196.8L203.1,196.8z"/>
	<path class="st2" d="M63.9,198.3c-0.5,2.7-1,5.4-1,8.1c0,1.1,0.3,1.9,1.5,2.2c1.2,0.3,1.6-0.5,2.1-1.2c1.1-1.4,1.6-3,1.7-4.8
		c0.2-2.6,0.8-5.1,1.3-7.6c0.6-2.8,1.7-3.4,5.9-4.1c2.6-0.4,4.1,0.5,5.2,2.8c2.1,4.2,0.7,9.1-3.2,11.7c-0.8,0.6-1.7,0.7-2.8,0.5
		c-1.6-0.3-1.9,0.5-1.4,1.8c0.8,2.2,2.5,2.9,4.8,2c2.1-0.9,3.2-2.8,4.8-4.3c0.4-0.2,0.6,0,0.8,0.3c0,0.7,0.2,1.5-0.2,2.2
		c-1.4,3.5-4.3,5.4-7.7,6.4c-2.9,0.9-5.8-1.3-7.5-5.3c-0.9,0.9-1.8,1.9-2.8,2.7c-1.3,1.1-2.6,2.5-4.6,1.5c-1.9-1-3.3-2.6-3.4-4.9
		c-0.1-2.8,0.4-5.5,0.9-8.1c0.1-0.7,0.7-1.8-0.4-2.1c-1.2-0.3-1.7,0.6-1.9,1.7c-0.5,2.4-1,4.9-1.9,7.2c-0.3,0.7-0.4,1.6-1.5,1.8
		c-0.4-2,0.1-3.9,0.3-5.9c-0.2-0.3-0.3-0.6,0.1-0.9c0.6-1.6,0.7-3.2,0-4.8c-0.9-2.3-0.3-4.6,0-6.9c0.2-1.1,1.5-2,2.9-1.6
		c1.2,0.4,1.2,1.3,0.9,2.4c-0.3,0.8-0.6,1.8,0.1,2.3c0.9,0.7,2,0,2.7-0.7c0.9-0.8,1.6-0.9,2.8-0.5c3.7,1.1,1.8,3.5,1.5,5.6
		c0.2,0.1,0.2,0.2,0.1,0.3C64.1,198.3,64,198.3,63.9,198.3L63.9,198.3z"/>
	<path class="st2" d="M39.5,178.4c3.4,0.4,6.8-0.7,10.2-0.4c1.7,0.1,2.5,0.9,1.9,2.3c-0.5,1.4,1.7,3.4-1,4.1c-1.7,0.1-3.4,0.1-5,0
		c-3-0.4-2.5,1.8-2.5,3.6c0.3,0.3,0.3,0.6-0.1,0.9c-0.8,3.7,0.7,5.3,4.4,4.8c3.1-0.4,3.5,0,2.8,3.1c0,0.2-0.2,0.6-0.1,0.7
		c1.7,3.1-0.4,2.2-2.1,2.1c-1.7,0-3.5,0.3-5.2,0.5c-0.8,0.1-0.8,0.7-0.8,1.3c0.2,3.5-0.6,7,0.8,10.3c0.5,1.3-0.7,1.2-1.2,1.7
		c-1.4,1.2-2.6,0.4-3.9-0.2c-1.2-0.6-1.8-1.4-1.8-2.9c0-7.9,1.3-15.7,1.1-23.7c0-0.7,0.5-1.7-0.5-2.2l0,0c-2.7,0.1-2.6-2.1-2.9-3.7
		c-0.3-1.6,0.2-2.9,2.3-2.3C37.2,178.1,38.4,178.1,39.5,178.4z"/>
	<path class="st3" d="M83.5,208c-0.3-0.7-0.8-1.3-0.1-2c0.6-0.4,0.1-1.1,0.5-1.6c0-0.8,0-1.6,0-2.4c-0.3-0.3-0.3-0.6,0.1-0.9
		c0.5-2.2,1-4.3,1.5-6.5c0.3-1.6,1-2.7,2.8-3c2.5-0.4,5.1-2,7.3,0.7c2.2,2.7,2.6,6.6,0.8,9.6c-1.3,2.2-3,4.3-6,4.1
		c-1.1,0.3-1,1.2-1,2c1.3,2.4,3,2.8,5.4,1.2c0.9-0.6,1.6-1.4,2.4-2.2c0.7-0.7,1.3-1.5,1.9-2.3c0.7,3.2,0.5,3.8-1.6,6
		c-0.5,0.5-1,0.9-1.5,1.3c-5.6,4.2-9.6,3-12.1-3.5C83.9,208.3,83.7,208.1,83.5,208L83.5,208z"/>
	<path class="st4" d="M136.9,186.8c0.1-5.1,2.9-8.3,7.4-8.2c4.4,0.1,7.3,3.4,7.2,8.4c-0.1,5.1-2.9,8.2-7.5,8.1
		C139.6,194.9,136.9,191.7,136.9,186.8z"/>
	<path class="st4" d="M136.9,206.9c0.1-6.2,4.7-9.7,10-7.8c0.8,0.3,1.7,0.8,2.3,1.4c1.1,1.2,2.3,2.6,1.6,4.3
		c-0.4,0.9-4.2-0.1-5.1-1.2c-1-1.2-2.4-1.1-3.2,0.4c-0.7,1.5-0.6,3.1-0.4,4.7c0.2,1,0.6,2,1.8,2.2c1.1,0.2,1.6-0.5,2.1-1.4
		c0.5-0.9,4.4-1.4,5-0.7c0.5,0.5,0.1,1.1,0,1.6c-0.7,2.6-2.8,4.3-5.6,4.6c-3.4,0.4-6-0.9-7.4-3.5C137.1,210,136.8,208.4,136.9,206.9
		L136.9,206.9z"/>
	<path class="st5" d="M117.1,162c5.4,0,10.8-0.1,16.2,0.1c2.5,0.1,3.2-0.5,3.2-3.2c-0.1-26-0.1-52-0.1-78c0-1-0.3-2,0.4-2.9
		c0,10.6,0.1,21.1,0.1,31.7c0,16.8,0,33.6,0,50.4c0,1.8-0.3,2.4-2.3,2.4c-5.2-0.2-10.5,0-15.7-0.1
		C118.4,162.5,117.5,162.9,117.1,162L117.1,162z"/>
	<path class="st6" d="M101.4,179.6v34.3c-0.1,0-0.2,0-0.2,0v-34.3C101.2,179.6,101.3,179.6,101.4,179.6z"/>
	<path class="st7" d="M135.4,179.6v34.3c-0.1,0-0.2,0-0.2,0v-34.3C135.2,179.6,135.3,179.6,135.4,179.6z"/>
	<path class="st8" d="M202.3,179.6v34.2h-0.2v-34.2C202.2,179.6,202.3,179.6,202.3,179.6z"/>
	<path class="st9" d="M108.4,186c0.1,1.4,0.8,2.8,0.7,4.3c-1.2,7.1-0.3,14.2-0.6,21.4c0,0.9,0.4,2-0.6,2.8c0-9.1,0-18.2,0-27.3
		C107.8,186.6,107.5,186,108.4,186L108.4,186z"/>
	<path class="st10" d="M128.6,186.5c-0.2,9.3-0.2,18.6,0,27.9c-1-0.6-0.6-1.6-0.6-2.5c0-6.9,0-13.9,0-20.8c0-0.9,0.3-1.8-0.4-2.6
		c-0.3-0.9,0.4-1.7,0.5-2.5C128.5,185.9,128.7,186,128.6,186.5z"/>
	<path class="st11" d="M197.9,202.3c0-7.8-0.1-15.5-0.1-23.3c0.5,0.2,0.7,0.7,0.7,1.2c0,8.2,0,16.4-0.3,24.7
		C198.1,204,198,203.2,197.9,202.3L197.9,202.3z"/>
	<path class="st12" d="M175.3,179.6v24.8c-0.1,0-0.2,0-0.2,0v-24.8C175.2,179.6,175.3,179.6,175.3,179.6z"/>
	<path class="st13" d="M159,162.3c0-0.2,0.1-0.7,0.1-0.7c6.7,0.9,13.5,0.1,20.2,0.4c0.2,0,0.4,0.2,0.6,0.3
		C173,162.5,166,162.6,159,162.3L159,162.3z"/>
	<path class="st13" d="M202.5,162.4c1-0.7,2.1-0.4,3.1-0.4c4.6,0,9.1,0,13.7,0c0.9,0,1.8-0.3,2.6,0.4
		C215.5,162.4,209,162.4,202.5,162.4L202.5,162.4z"/>
	<path class="st6" d="M160.5,195v-17.4h0.5V195C160.8,195.2,160.7,195.2,160.5,195L160.5,195z"/>
	<path class="st14" d="M210,213.8c0-3.4-0.1-6.8,0-10.2c0-1.8,0.2-1.8,3.9-1.5c-1.1,0.8-2.8-0.4-3.3,1c-0.4,1-0.2,2.3-0.2,3.5
		c0,2.4,0,4.8,0,7.2C210.3,213.8,210.2,213.8,210,213.8L210,213.8z"/>
	<path class="st15" d="M45.5,184.4c1.7-0.6,3.4-0.9,5,0C48.9,185.3,47.2,185.3,45.5,184.4z"/>
	<path class="st16" d="M137.9,80c0.2,0.9,0.4,1.9,0.6,2.9c-0.3,0.8-0.6,1.7-1,3.1C137.6,83.6,137,81.8,137.9,80L137.9,80z"/>
	<path class="st17" d="M160.5,195c0.2,0,0.3,0,0.5,0c0.2,0.4,0.4,0.8,0.6,1.2c-0.4,0.9-0.8,1.8-1.2,2.7c-1.3-0.4-0.5-1.3-0.5-2
		c0.1-0.5,0.1-1,0.2-1.4L160.5,195L160.5,195z"/>
	<path class="st18" d="M172.8,186.9h-5.8c0-0.1,0-0.2,0-0.2h5.7C172.8,186.7,172.8,186.8,172.8,186.9L172.8,186.9z"/>
	<path class="st19" d="M188.5,208.5c-1.2,0.7-2.4,0.7-3.5,0C186.2,207.7,187.3,207.7,188.5,208.5z"/>
	<path class="st20" d="M56.9,205.1v3.8h-0.2v-3.7C56.7,205.1,56.8,205.1,56.9,205.1L56.9,205.1z"/>
	<path class="st21" d="M89.5,208c-0.8-2-0.7-2.1,1-2C90.2,206.6,89.8,207.3,89.5,208z"/>
	<path class="st22" d="M142.9,195.8c0.9-0.5,1.7-0.3,2.5,0H142.9z"/>
	<path class="st23" d="M63.9,198.3c-0.1-0.1-0.1-0.3,0.1-0.3c0.8,0.9,0.5,1.9,0.1,2.9C64.1,200,64,199.2,63.9,198.3z"/>
	<path class="st24" d="M84,204.4c0.4,0.6,0.4,1.3,0,1.8c-0.5,0.8-0.4-0.1-0.6-0.3c-0.2-0.2-0.3-0.4-0.5-0.5
		C83.1,204.9,83.5,204.6,84,204.4L84,204.4z"/>
	<path class="st25" d="M39.5,178.4c-1.2,0.2-2.3,0.3-3.5,0C37.2,177.7,38.3,177.7,39.5,178.4z"/>
	<path class="st26" d="M98.2,197.1c0.3,0.5,0.4,0.9,0.1,1.4C97.7,198,98.2,197.5,98.2,197.1z"/>
	<path class="st27" d="M84.1,201.1c0,0.3-0.1,0.6-0.1,0.9c-0.7-0.6-0.5-1.3-0.2-2C83.9,200.4,84,200.7,84.1,201.1z"/>
	<path class="st28" d="M43,200.7c0.5-0.3,1-0.3,1.6,0.1C44,201,43.5,201.1,43,200.7z"/>
	<path class="st19" d="M53.1,202.1c0,0.3-0.1,0.6-0.1,0.9c-0.6-0.6-0.6-1.3-0.1-2.2C53,201.3,53,201.7,53.1,202.1z"/>
	<path class="st15" d="M43,188.8c0-0.3,0-0.6,0.1-0.9c0.6,0.6,0.6,1.3,0.2,2.3C43.1,189.6,43,189.2,43,188.8L43,188.8z"/>
	<path class="st29" d="M118.5,205.1c0,0.5,0.1,1-0.3,1.4c-0.5-0.3-0.4-0.8-0.4-1.3c0.1-0.2,0.2-0.4,0.4-0.7
		C118.4,204.7,118.5,204.9,118.5,205.1L118.5,205.1z"/>
	<path class="st30" d="M91,215.2c-0.5,0.4-1,0.4-1.5,0.1C90,214.9,90.5,214.9,91,215.2z"/>
	<path class="st30" d="M36.6,184.4c-0.6,0.6-1.2,0.7-2.3,0.2C35.3,184.6,35.9,184.5,36.6,184.4L36.6,184.4L36.6,184.4z"/>
	<path class="st31" d="M52,178.7c0.8,0.7,0.4,1.2,0.6,1.9C51.8,180,52.2,179.5,52,178.7z"/>
	<path class="st32" d="M128.6,186.5c-0.2-0.2-0.4-0.3-0.5-0.5c0-0.5-0.2-1.5,0.5-1.2C129.3,185,129,185.9,128.6,186.5z"/>
	<path class="st33" d="M108.4,186c-0.2,0.4-0.3,0.7-0.5,1c-0.5-0.7-0.5-1.5-0.3-2.4C108.4,184.9,108.4,185.5,108.4,186L108.4,186z"
		/>
	<path class="st34" d="M159.9,196.9c0.3,0.6-0.1,1.4,0.5,2c0,0.4-0.1,0.7-0.4,0.7c-0.4,0.1-0.5-0.3-0.5-0.6
		C159.6,198.3,159.8,197.6,159.9,196.9L159.9,196.9z"/>
	<path class="st35" d="M215.4,192c0.1,0.9-0.1,1.8-1,2.4c-3,1-4.5-0.1-4.5-3.4c0-2,0-3.9,0-5.9c3.3-0.7,5,0.3,5.5,3.5
		C215.1,189.6,215.1,190.8,215.4,192z"/>
	<g>
		<path class="st36" d="M210,185c1.1,2.3,0.4,4.8,0.5,7.2c0.1,3.2,0.2,3.3,3.2,1.8c0.5-0.2,0.7-0.3,0.8,0.3
			c-0.7,0.5-1.4,1.1-2.2,1.3c-1.6,0.5-2.9,0.5-2.6-1.9C209.9,190.8,209.3,187.9,210,185L210,185z"/>
	</g>
	<path class="st37" d="M215.4,192c-0.7-1.2-0.7-2.3,0-3.5C215.8,189.6,215.8,190.8,215.4,192z"/>
	<path class="st38" d="M77.3,196.6c-0.2,2.2-0.4,4.2-1.4,6.1c-0.4,0.7-0.8,1.3-1.8,1c-1-0.3-0.9-1-0.8-1.8c0.5-2.3,1-4.7,1.5-7
		c0.2-0.6,0.1-1.7,1.1-1.6c0.9,0.1,1,1,1.1,1.7C77.2,195.5,77.3,196.1,77.3,196.6L77.3,196.6z"/>
	<path class="st39" d="M92.5,200.5c0,0.2,0,0.5-0.1,0.7c-0.5,1.1-0.6,2.8-2.2,2.5c-2-0.4-0.7-2.1-0.6-3.1c0.3-2.1,0.9-4.2,1.4-6.3
		c0.1-0.5,0.2-1.1,0.8-1.1c0.5,0,0.9,0.5,1,1c0.4,2,0.5,3.9-0.3,5.9c-0.4-0.3-0.2-0.8-0.3-1.3C92.4,199.3,92.1,199.9,92.5,200.5
		L92.5,200.5z"/>
	<path class="st23" d="M92.5,200.5c-0.7-0.8-0.5-1.6-0.1-2.9c0.1,1.2,0.2,1.8,0.2,2.5C92.6,200.2,92.6,200.3,92.5,200.5L92.5,200.5z
		"/>
	<path class="st40" d="M146,189c0,1.2-0.7,1.9-1.8,1.9c-1,0-1.5-0.8-1.8-1.8c-0.4-1.4-0.4-2.8-0.1-4.2c0.2-1.1,0.7-2.2,2-2.2
		c1.3,0,1.9,0.9,1.9,2.2C146,186.3,145.9,187.6,146,189L146,189z"/>
	<path class="st41" d="M146,189c-0.8-1.4-0.8-2.7,0.1-4.1C146.6,186.3,146.6,187.6,146,189z"/>
</g>
</svg>
