<?xml version="1.0" encoding="UTF-8"?>
<svg id="_图层_2" data-name="图层 2" xmlns="http://www.w3.org/2000/svg" viewBox="0 0 62.55 61.94">
  <defs>
    <style>
      .cls-1 {
        fill: #fff;
      }

      .cls-2 {
        fill: #615ced;
      }
    </style>
  </defs>
  <g id="_母品牌" data-name="母品牌">
    <g>
      <g>
        <polygon class="cls-1" points="22.76 1.47 27.02 8.85 22.76 16.22 56.82 16.22 52.56 23.59 20.2 23.59 15.1 14.75 22.76 1.47"/>
        <polygon class="cls-1" points="5.73 16.22 14.25 16.22 30.42 44.24 25.31 53.09 9.99 53.09 14.25 45.71 22.76 45.72 5.73 16.22"/>
        <polygon class="cls-1" points="27.02 53.09 31.27 60.46 48.3 30.97 52.56 38.34 61.07 38.34 53.41 25.07 43.19 25.07 27.02 53.09"/>
      </g>
      <path class="cls-2" d="m62.35,37.6l-7.23-12.53-.85-1.48,3.83-6.63c.13-.23.2-.48.2-.74s-.07-.51-.2-.74l-4.26-7.37c-.13-.23-.32-.41-.54-.54-.22-.13-.47-.2-.74-.2h-16.18l-3.83-6.64c-.26-.46-.75-.74-1.28-.74h-8.51c-.26,0-.52.07-.74.2-.22.13-.41.31-.54.54l-7.24,12.54-.85,1.47h-7.66c-.26,0-.52.07-.74.2-.22.13-.41.31-.54.54L.2,22.86c-.13.23-.2.48-.2.74s.07.51.2.74l8.09,14.01-3.83,6.64c-.13.23-.2.48-.2.74s.07.51.2.74l4.26,7.37c.13.23.32.41.54.54.22.13.47.2.74.2h16.17l3.83,6.64h0c.26.46.75.74,1.28.74h8.51c.26,0,.52-.07.74-.2.22-.13.41-.31.54-.54l8.09-14.01h7.66c.26,0,.52-.07.74-.2.22-.13.41-.31.54-.54l4.26-7.37c.13-.23.2-.48.2-.74s-.07-.51-.2-.74ZM22.76,1.47l4.26,7.38-4.26,7.37h34.06l-4.26,7.37H20.2l-5.11-8.85L22.76,1.47Zm2.55,51.61h-15.32l4.26-7.38h8.51S5.73,16.22,5.73,16.22h8.51l4.26,7.37,11.92,20.65-5.11,8.85Zm27.25-14.75l-4.25-7.37-17.03,29.5-4.26-7.37,4.26-7.37,11.92-20.65h10.22l7.66,13.27h-8.52Z"/>
    </g>
  </g>
</svg>