<?xml version="1.0" standalone="no"?><!DOCTYPE svg PUBLIC "-//W3C//DTD SVG 1.1//EN" "http://www.w3.org/Graphics/SVG/1.1/DTD/svg11.dtd"><svg t="1731492648162" class="icon" viewBox="0 0 1024 1024" version="1.1" xmlns="http://www.w3.org/2000/svg" p-id="46117" xmlns:xlink="http://www.w3.org/1999/xlink" width="128" height="128"><path d="M136.533 98.987c-27.306 0-42.666 20.48-42.666 40.96v291.84c0 25.6 15.36 40.96 40.96 40.96h286.72c20.48 0 40.96-15.36 40.96-40.96v-291.84c0-20.48-15.36-40.96-40.96-40.96H136.533z m0 0c-27.306 0-42.666 20.48-42.666 40.96v291.84c0 25.6 15.36 40.96 40.96 40.96h286.72c20.48 0 40.96-15.36 40.96-40.96v-291.84c0-20.48-15.36-40.96-40.96-40.96H136.533zM527.36 274.773c-15.36 15.36-15.36 40.96 0 58.027l167.253 167.253c15.36 15.36 40.96 15.36 58.027 0L919.893 332.8c15.36-15.36 15.36-40.96 0-58.027l-168.96-165.546c-15.36-15.36-40.96-15.36-58.026 0L527.36 274.773z m0 0c-15.36 15.36-15.36 40.96 0 58.027l167.253 167.253c15.36 15.36 40.96 15.36 58.027 0L919.893 332.8c15.36-15.36 15.36-40.96 0-58.027l-168.96-165.546c-15.36-15.36-40.96-15.36-58.026 0L527.36 274.773z m56.32 276.48c-20.48 0-40.96 15.36-40.96 40.96v291.84c0 20.48 15.36 40.96 40.96 40.96H870.4c20.48 0 40.96-15.36 40.96-40.96V593.92c0-20.48-15.36-40.96-40.96-40.96H583.68z m0 0c-20.48 0-40.96 15.36-40.96 40.96v291.84c0 20.48 15.36 40.96 40.96 40.96H870.4c20.48 0 40.96-15.36 40.96-40.96V593.92c0-20.48-15.36-40.96-40.96-40.96H583.68z m-447.147 0c-25.6 0-40.96 20.48-40.96 40.96v291.84c0 25.6 15.36 40.96 40.96 40.96h286.72c20.48 0 40.96-15.36 40.96-40.96V593.92c0-20.48-15.36-40.96-40.96-40.96h-286.72z m0 0c-25.6 0-40.96 20.48-40.96 40.96v291.84c0 25.6 15.36 40.96 40.96 40.96h286.72c20.48 0 40.96-15.36 40.96-40.96V593.92c0-20.48-15.36-40.96-40.96-40.96h-286.72z" fill="#1296db" p-id="46118"></path></svg>