<?xml version="1.0" standalone="no"?><!DOCTYPE svg PUBLIC "-//W3C//DTD SVG 1.1//EN" "http://www.w3.org/Graphics/SVG/1.1/DTD/svg11.dtd"><svg t="1731492719001" class="icon" viewBox="0 0 1024 1024" version="1.1" xmlns="http://www.w3.org/2000/svg" p-id="47217" xmlns:xlink="http://www.w3.org/1999/xlink" width="128" height="128"><path d="M515.199688 0c-1.099893 0-2.199785 0.09999-3.199688 0.09999-1.099893 0-2.199785-0.09999-3.199688-0.09999-1.199883 0 3.299678 0.09999 2.299776 0.09999C275.523093 2.399766 85.341666 189.681476 85.341666 420.45894c0 120.388243 51.794942 228.877649 134.786837 305.570159l2.099795 1.799824 288.7718 294.971194 0.999902 1.199883 0.999902-1.199883 288.7718-294.971194 2.199785-1.799824c82.891905-76.69251 134.686847-185.181916 134.686847-305.570159 0-230.777463-190.181428-417.959184-425.558441-420.25896-1.199883-0.09999 3.299678-0.19998 2.099795-0.19998z m0 0" fill="#22B573" p-id="47218"></path><path d="M441.206913 212.37926H315.519188c-18.798164 0-33.99668 15.198516-33.99668 33.99668v125.787716c0 18.798164 15.198516 33.99668 33.99668 33.99668h125.787716c18.798164 0 33.99668-15.198516 33.99668-33.99668V246.37594c0-18.698174-15.198516-33.99668-34.096671-33.99668z m8.39918 143.086027c0 13.798652-11.298897 25.097549-25.097549 25.097549h-92.390977c-13.798652 0-24.997559-11.198906-24.997559-24.997559V262.974319c0-13.798652 11.198906-24.997559 24.997559-24.997559h92.490967c13.798652 0 24.997559 11.198906 24.997559 24.997559v92.490968zM733.578361 285.172151l-88.891319-88.891319c-13.298701-13.298701-34.796602-13.298701-48.095303 0l-88.891319 88.891319c-13.298701 13.298701-13.298701 34.796602 0 48.095303l88.891319 88.89132c13.298701 13.298701 34.796602 13.298701 48.095303 0l88.891319-88.89132c13.198711-13.298701 13.198711-34.796602 0-48.095303zM683.483254 454.55561H557.695538c-18.798164 0-33.99668 15.198516-33.99668 33.99668v125.787716c0 18.798164 15.198516 33.99668 33.99668 33.99668h125.787716c18.798164 0 33.99668-15.198516 33.99668-33.99668V488.65228c0-18.898154-15.298506-34.09667-33.99668-34.09667z m8.299189 143.086027c0 13.798652-11.198906 24.997559-24.997559 24.997558h-92.290987c-13.798652 0-24.997559-11.198906-24.997559-24.997558v-92.290988c0-13.798652 11.198906-24.997559 24.997559-24.997558h92.290987c13.798652 0 24.997559 11.198906 24.997559 24.997558v92.290988zM441.706865 454.55561H315.019236c-18.498194 0-33.596719 14.998535-33.596719 33.596719v126.687628c0 18.498194 14.998535 33.596719 33.596719 33.596719h126.687629c18.498194 0 33.596719-14.998535 33.596719-33.596719V488.152329c0-18.498194-15.098526-33.596719-33.596719-33.596719z m7.899228 143.186017c0 13.798652-11.298897 24.997559-25.097549 24.997559h-92.390977c-13.798652 0-24.997559-11.198906-24.997559-24.997559v-92.490968c0-13.798652 11.198906-24.997559 24.997559-24.997559h92.490967c13.798652 0 24.997559 11.198906 24.997559 24.997559v92.490968z" fill="#FFFFFF" p-id="47219"></path></svg>