<?xml version="1.0" standalone="no"?><!DOCTYPE svg PUBLIC "-//W3C//DTD SVG 1.1//EN" "http://www.w3.org/Graphics/SVG/1.1/DTD/svg11.dtd"><svg t="1731561027400" class="icon" viewBox="0 0 1024 1024" version="1.1" xmlns="http://www.w3.org/2000/svg" p-id="92563" xmlns:xlink="http://www.w3.org/1999/xlink" width="128" height="128"><path d="M406.574545 771.025455h210.85091a21.643636 21.643636 0 0 1 21.643636 21.643636v52.130909a21.876364 21.876364 0 0 1-21.643636 21.876364h-210.85091a21.876364 21.876364 0 0 1-21.643636-21.876364v-52.130909a21.643636 21.643636 0 0 1 21.643636-21.643636z m-162.90909-380.974546l21.178181 12.334546a14.429091 14.429091 0 0 1 5.12 19.54909l-12.8 23.272728a14.429091 14.429091 0 0 1-19.549091 5.12l-21.178181-12.101818a327.912727 327.912727 0 0 0 0 279.272727l40.96-23.272727a14.429091 14.429091 0 0 1 19.549091 5.12l13.032727 23.272727a14.196364 14.196364 0 0 1-5.352727 19.549091l-40.727273 23.272727-54.690909 30.487273c-18.152727 11.170909-30.72 5.585455-37.934546-6.283637a418.909091 418.909091 0 1 1 723.083637-2.792727 26.530909 26.530909 0 0 1-38.865455 9.076364l-55.854545-32.349091-40.727273-23.272727a14.196364 14.196364 0 0 1-5.352727-19.549091l13.032727-23.272728a14.429091 14.429091 0 0 1 19.549091-5.12l40.96 23.272728a325.818182 325.818182 0 0 0 30.952727-139.636364 323.490909 323.490909 0 0 0-31.185454-139.636364l-20.945455 12.101819a14.429091 14.429091 0 0 1-19.549091-5.12l-13.032727-23.272728a14.196364 14.196364 0 0 1 5.352727-19.549091l20.945455-12.101818a325.818182 325.818182 0 0 0-240.872728-139.636363v46.545454a14.429091 14.429091 0 0 1-14.429091 14.429091h-25.6a14.429091 14.429091 0 0 1-14.42909-14.429091v-46.545454a325.818182 325.818182 0 0 0-241.105455 139.636363z m283.694545 96.814546l119.621818-143.36A24.669091 24.669091 0 0 1 687.243636 372.363636l-98.210909 159.650909a86.109091 86.109091 0 0 1 10.472728 41.425455A87.738182 87.738182 0 1 1 512 485.469091a86.341818 86.341818 0 0 1 15.36 1.396364z m-43.054545 58.88A27.694545 27.694545 0 1 0 512 573.207273a27.461818 27.461818 0 0 0-27.461818-27.461818z" fill="#699BF4" p-id="92564"></path></svg>