<svg id="图层_1" data-name="图层 1" xmlns="http://www.w3.org/2000/svg" viewBox="0 0 331.4 352"><defs><style>.cls-1{fill:#1e9ffe;}.cls-2{fill:#1f9ffe;}</style></defs><g id="图层_2" data-name="图层 2"><g id="图层_1-2" data-name="图层 1-2"><path class="cls-1" d="M-656.2-10.9c36,2.6,66.9-9,96.4-25.6,45.2-25.4,90.7-24.9,136,.6,29.3,16.6,60.3,28.1,94.4,24.6,17.1,114.9-48.1,250.1-143.1,302-13.9,7.6-24.6,8.3-39,.3C-607.3,238.5-669.9,110.6-656.2-10.9Zm29.5,37.6c5,86.4,31.6,170.3,113.9,229.2,14.3,10.2,25.9,10.8,40.2.4,83-59.4,109.7-143.7,114-229.6-89.8-62.2-177.7-61.5-268.1,0Z" transform="translate(658.08 55.29)"/><path class="cls-2" d="M-491.6,2.6v90h59.4c-19.8,38.6-37.8,73.8-60.3,118V122.5h-60.3C-533.2,83.9-515.1,48.7-491.6,2.6Z" transform="translate(658.08 55.29)"/></g></g></svg>