<?xml version="1.0" standalone="no"?><!DOCTYPE svg PUBLIC "-//W3C//DTD SVG 1.1//EN" "http://www.w3.org/Graphics/SVG/1.1/DTD/svg11.dtd"><svg t="1731555517604" class="icon" viewBox="0 0 1024 1024" version="1.1" xmlns="http://www.w3.org/2000/svg" p-id="11545" xmlns:xlink="http://www.w3.org/1999/xlink" width="128" height="128"><path d="M528.06 34.04c-44.11-15.15-99.91 0.74-130.93 37.28-32.55 38.34-39.96 92.14-15.97 134.25 6 10.54 13.34 20.41 21.17 29.91 70.62-35.7 141.98-67.36 210.31-106.29-7.75-42.55-39.95-79.82-84.58-95.15z" fill="#FFC65E" p-id="11546"></path><path d="M612.65 129.19c-68.33 38.94-139.7 70.59-210.31 106.29 5.48 6.65 11.21 13.12 16.92 19.49 23.22 25.88 19.63 46.84-12.97 59.34-34.84 13.35-71.45 20.39-108.54 15.29-41.3-5.68-82.37-13.72-123.07-22.86-57.29-12.87-73.3-3.93-87.91 53.33-0.3 1.19-0.33 2.44-0.59 3.65-14.18 65.4-8.91 129.73 11.79 192.87 9.88 30.14 28.85 33.92 52.7 12.65 14.18-12.65 28.17-26.15 44.29-35.87 41.36-24.93 84.18-25.19 126.08-0.69 9.35 5.47 17.64 11.62 24.97 18.34 82.75-70.7 159.75-147.14 225.05-235.28-8.34-5.09-15.01-12.37-18.29-23.36-6.43-21.53 8.92-35.46 22.58-49.16 27.52-27.6 41.07-60.52 39.04-99.92-0.26-4.76-0.9-9.46-1.74-14.11z" fill="#FCB138" p-id="11547"></path><path d="M801.07 313.75c-65.73 28.48-133.03 26.72-201.09 12.24-10.2-2.17-20.44-5.07-28.93-10.25-65.3 88.14-142.3 164.59-225.05 235.28 27.55 25.25 40.74 58.95 38.37 98.58-3.2 53.4-31.54 93.21-82.78 112.03-51.63 18.97-97.93 7.41-137.2-31.5-5.65-5.59-11.54-11.22-18.19-15.46-20.94-13.33-38.6-8.33-50.23 13.95-3.4 6.51-6.65 13.4-8.24 20.5C75.4 803.96 67.8 859.32 71.98 915.7c1.87 25.23 7.19 39.94 19.7 48.1 31.07-11.79 63.22-20.86 89.7-39.4 70.25-40.67 122.02-85.05 184.88-136.81 180.29-142.15 347.57-287.55 468.32-472.78-7.84-6.79-19.12-7.29-33.51-1.06z" fill="#FCA315" p-id="11548"></path><path d="M850.62 394.1c-0.22-18.41-1.55-37-4.64-55.12-1.92-11.23-5.78-19.3-11.39-24.16-120.76 185.22-288.04 330.62-468.33 472.77-62.86 51.77-114.63 96.14-184.88 136.81-26.48 18.53-58.64 27.6-89.7 39.4 9.01 5.88 21.73 8.37 39.69 8.83 3.08 0.08 6.16 0.05 9.24 0.05 157.1 0.21 314.19 0.42 471.29 0.64 4.66 0.01 9.31 0 16.15 0-130.98-97.74-124.38-235.14-82.43-313.54 24.96-46.65 60.44-82.29 107.99-104.86 63.61-30.2 129-32.8 197.22-5.42 0-53.58 0.39-104.5-0.21-155.4z" fill="#FF8E12" p-id="11549"></path><path d="M614.585222 914.507758a203.44 203.44 0 1 0 287.702585-287.712628 203.44 203.44 0 1 0-287.702585 287.712628Z" fill="#FCA315" p-id="11550"></path></svg>