<?xml version="1.0" standalone="no"?><!DOCTYPE svg PUBLIC "-//W3C//DTD SVG 1.1//EN" "http://www.w3.org/Graphics/SVG/1.1/DTD/svg11.dtd"><svg t="1731561081441" class="icon" viewBox="0 0 1024 1024" version="1.1" xmlns="http://www.w3.org/2000/svg" p-id="97522" xmlns:xlink="http://www.w3.org/1999/xlink" width="128" height="128"><path d="M512.320461 0.000642a361.54352 361.54352 0 0 1 361.864322 360.901916c0 184.46098-295.458369 590.275134-329.142548 636.149778l-12.511266 16.681689a25.664136 25.664136 0 0 1-20.210508 10.265654 25.343335 25.343335 0 0 1-20.531309-10.265654l-12.511266-16.681689C445.593707 951.177693 149.814536 545.363538 149.814536 360.902558A361.864322 361.864322 0 0 1 512.320461 0.000642z" fill="#7A85CA" p-id="97523"></path><path d="M511.99966 135.37896a210.445918 210.445918 0 1 0 210.445917 210.445918 209.483512 209.483512 0 0 0-210.445917-210.445918z m123.187854 335.558582h-250.225329v-27.909748h43.629032v-112.922199h27.909748v112.922199h49.724264V286.476563H534.776581v64.160341h79.558822v27.588946H534.776581v64.160341h101.373338z m1.92481-140.831947a435.969515 435.969515 0 0 1-125.112664-99.448529 425.383059 425.383059 0 0 1-125.112665 99.448529l-15.719283-27.909749a427.628671 427.628671 0 0 0 130.887095-96.240511h21.814516a435.327912 435.327912 0 0 0 128.320681 96.240511l-15.719283 27.909749z" fill="#FFFFFF" p-id="97524"></path></svg>