<?xml version="1.0" standalone="no"?><!DOCTYPE svg PUBLIC "-//W3C//DTD SVG 1.1//EN" "http://www.w3.org/Graphics/SVG/1.1/DTD/svg11.dtd"><svg t="1731492575297" class="icon" viewBox="0 0 1024 1024" version="1.1" xmlns="http://www.w3.org/2000/svg" p-id="45712" xmlns:xlink="http://www.w3.org/1999/xlink" width="128" height="128"><path d="M512 0a512 512 0 1 0 512 512A512 512 0 0 0 512 0z m0 839.868388a327.868388 327.868388 0 1 1 327.868388-327.868388 327.777817 327.777817 0 0 1-327.868388 327.868388z" fill="#1296db" p-id="45713"></path><path d="M512 227.787016a284.212984 284.212984 0 1 0 284.212984 284.212984 284.122413 284.122413 0 0 0-284.212984-284.212984z m-163.934194 325.33239A41.028834 41.028834 0 1 1 389.456926 512a41.028834 41.028834 0 0 1-41.39112 41.119406z m163.934194 0a41.028834 41.028834 0 1 1 41.028834-41.028835 41.028834 41.028834 0 0 1-41.028834 41.028835z m163.934194 0a41.028834 41.028834 0 1 1 41.028834-41.028835 41.028834 41.028834 0 0 1-41.028834 41.028835z" fill="#1296db" p-id="45714"></path></svg>