<?xml version="1.0" standalone="no"?><!DOCTYPE svg PUBLIC "-//W3C//DTD SVG 1.1//EN" "http://www.w3.org/Graphics/SVG/1.1/DTD/svg11.dtd"><svg t="1731561504911" class="icon" viewBox="0 0 1024 1024" version="1.1" xmlns="http://www.w3.org/2000/svg" p-id="120250" xmlns:xlink="http://www.w3.org/1999/xlink" width="128" height="128"><path d="M624.990954 980.593834c10.173255 18.403817 31.617451 27.454535 47.651926 20.097979 16.030333-7.339987 23.179779-29.488357 15.864645-49.213538l-53.343315-144.028609c-7.310992-19.721038-28.908448-28.684769-48.037151-19.924006l-20.184965 9.249544c-19.112134 8.760764-26.43141 30.987835-16.262297 49.395794l74.311157 134.422836z" fill="#FFFFFF" p-id="120251"></path><path d="M660.597348 1005.322798c-14.762819 0-29.451077-9.311677-37.416537-23.72655l-74.307015-134.418694c-5.202609-9.41109-6.271298-20.056556-3.007241-29.964711s10.442499-17.836335 20.218102-22.314058l20.184965-9.249543a38.195272 38.195272 0 0 1 16.013765-3.54987c15.611971 0 29.277105 9.667906 34.823517 24.633693l53.343315 144.028609c7.700359 20.769016 0.095271 44.010928-16.94576 51.814842a30.78901 30.78901 0 0 1-12.907111 2.746282z m-58.318104-219.085363a34.131769 34.131769 0 0 0-14.290607 3.172929l-20.184965 9.249543c-8.715199 3.997228-15.106622 11.043118-18.006165 19.845304-2.899543 8.806328-1.942694 18.275408 2.692434 26.667516l74.307015 134.418694c7.137019 12.911253 20.715167 21.589172 33.787966 21.589172h0.004142c3.988943 0 7.750066-0.795303 11.179811-2.369341 15.119048-6.925767 21.750718-27.835617 14.787672-46.612233l-53.343316-144.028609c-4.929224-13.325473-17.074169-21.932975-30.933987-21.932975z" fill="#6E6E96" p-id="120252"></path><path d="M660.597348 1023.96272c-21.444195 0-42.536303-13.089368-53.732683-33.348892l-74.311157-134.418694c-7.737639-14.008937-9.29925-29.923289-4.399022-44.810373 4.908513-14.895369 15.616113-26.762786 30.15111-33.427594l20.189107-9.249544a56.698502 56.698502 0 0 1 23.780399-5.248173c23.486302 0 44.019212 14.443869 52.303622 36.799348l53.343316 144.02861c11.200522 30.204959-0.509491 63.255612-26.663373 75.234868a49.221822 49.221822 0 0 1-20.661319 4.440444z m-58.318104-219.085363c-2.187084 0-4.386595 0.497065-6.528115 1.478767l-20.180822 9.245402c-3.943379 1.810144-6.809785 4.912655-8.064873 8.727626-1.25923 3.823255-0.795303 8.023451 1.300652 11.821853l74.307015 134.414551c4.341031 7.853621 12.07867 11.96683 17.480105 11.96683 1.288226 0 2.435617-0.227821 3.409035-0.671037 5.418004-2.485323 8.806328-13.147359 5.082485-23.192206l-53.343315-144.032751c-2.232648-6.014482-7.389694-9.759035-13.462167-9.759035z" fill="#6E6E96" p-id="120253"></path><path d="M306.608654 980.593834c-10.173255 18.403817-31.617451 27.454535-47.651926 20.097979-16.030333-7.339987-23.171495-29.488357-15.868788-49.213538l53.343316-144.028609c7.302707-19.721038 28.916733-28.684769 48.037151-19.924006l20.180823 9.249544c19.116276 8.760764 26.43141 30.987835 16.262296 49.395794l-74.302872 134.422836z" fill="#FFFFFF" p-id="120254"></path><path d="M271.006402 1005.322798a30.735161 30.735161 0 0 1-12.911253-2.750424c-17.032747-7.799772-24.637835-31.045826-16.945761-51.814842l53.343316-144.028609c5.538128-14.965787 19.211547-24.633693 34.827659-24.633693 5.488422 0 10.873288 1.192955 16.017907 3.549869l20.180823 9.249544c9.771462 4.477724 16.954045 12.401762 20.218102 22.314058 3.264058 9.912296 2.195369 20.553621-3.007241 29.964711l-74.302872 134.418694c-7.973745 14.419016-22.657861 23.730692-37.42068 23.730692z m58.309819-219.085363c-13.86396 0-26.008905 8.607502-30.942271 21.932975l-53.343316 144.024467c-6.954762 18.780757-0.31895 39.690608 14.787672 46.60809a26.576387 26.576387 0 0 0 11.188096 2.373484c13.072799 0 26.655089-8.677919 33.792108-21.589173l74.302873-134.418693c4.63927-8.387965 5.596119-17.861188 2.692433-26.667516-2.899543-8.802186-9.295108-15.848076-18.010307-19.845304l-20.180823-9.249544a34.160764 34.160764 0 0 0-14.286465-3.168786z" fill="#6E6E96" p-id="120255"></path><path d="M271.006402 1023.96272a49.209395 49.209395 0 0 1-20.686172-4.448728c-26.129029-11.96683-37.839042-45.009199-26.655089-75.226584L277.008457 800.258798c8.280268-22.35548 28.809036-36.803491 52.307764-36.803491 8.184997 0 16.187737 1.764579 23.780399 5.244032l20.180823 9.253686c14.539139 6.660666 25.250882 18.536367 30.155252 33.423452 4.904371 14.895369 3.346902 30.809721-4.39488 44.810373L324.734943 990.609686c-11.19638 20.263667-32.288488 33.353034-53.728541 33.353034z m58.309819-219.085363c-6.072472 0-11.23366 3.740411-13.462166 9.763177L262.510739 958.669143c-3.7197 10.048989-0.331376 20.719309 5.070059 23.192206 5.132192 2.356915 15.524984-1.553327 20.901567-11.287509l74.302872-134.418693c2.100098-3.798402 2.564025-7.998598 1.304795-11.821853-1.25923-3.819113-4.125636-6.917482-8.069015-8.727626l-20.180823-9.249544a15.595402 15.595402 0 0 0-6.523973-1.478767z" fill="#6E6E96" p-id="120256"></path><path d="M441.288306 492.405983m-398.728651 0a398.728651 398.728651 0 1 0 797.457302 0 398.728651 398.728651 0 1 0-797.457302 0Z" fill="#FFFFFF" p-id="120257"></path><path d="M441.288306 911.841516C210.008291 911.841516 21.848631 723.681855 21.848631 492.405983 21.848631 261.125968 210.008291 72.966307 441.288306 72.966307c231.280015 0 419.439675 188.159661 419.439675 419.439676 0 231.275872-188.159661 419.435533-419.439675 419.435533z m0-797.453159c-208.439896 0-378.017626 169.577729-378.017626 378.017626s169.577729 378.013483 378.017626 378.013483 378.017626-169.573587 378.017626-378.013483-169.577729-378.017626-378.017626-378.017626z" fill="#6E6E96" p-id="120258"></path><path d="M441.288306 492.405983m-300.17731 0a300.17731 300.17731 0 1 0 600.35462 0 300.17731 300.17731 0 1 0-600.35462 0Z" fill="#FF8C8C" p-id="120259"></path><path d="M441.288306 813.294318c-176.938428 0-320.888335-143.949907-320.888335-320.888335s143.949907-320.888335 320.888335-320.888335 320.888335 143.949907 320.888335 320.888335-143.949907 320.888335-320.888335 320.888335z m0-600.35462c-154.098309 0-279.466285 125.367976-279.466285 279.466285s125.367976 279.466285 279.466285 279.466285 279.466285-125.372118 279.466285-279.466285-125.372118-279.466285-279.466285-279.466285z" fill="#6E6E96" p-id="120260"></path><path d="M441.288306 492.405983m-199.550724 0a199.550724 199.550724 0 1 0 399.101448 0 199.550724 199.550724 0 1 0-399.101448 0Z" fill="#FFFFFF" p-id="120261"></path><path d="M441.288306 712.667732c-121.453592 0-220.261749-98.808157-220.261749-220.261749S319.834714 272.144234 441.288306 272.144234s220.261749 98.808157 220.261749 220.261749-98.808157 220.261749-220.261749 220.261749z m0-399.101449c-98.613474 0-178.8397 80.226226-178.8397 178.8397s80.226226 178.8397 178.8397 178.839699 178.8397-80.226226 178.8397-178.839699S539.90178 313.566283 441.288306 313.566283z" fill="#6E6E96" p-id="120262"></path><path d="M441.288306 492.405983m-90.701862 0a90.701862 90.701862 0 1 0 181.403724 0 90.701862 90.701862 0 1 0-181.403724 0Z" fill="#FF8C8C" p-id="120263"></path><path d="M441.288306 603.81887c-61.433042 0-111.412887-49.979845-111.412887-111.412887 0-61.433042 49.979845-111.412887 111.412887-111.412887 61.437184 0 111.417029 49.979845 111.417029 111.412887 0 61.433042-49.983987 111.412887-111.417029 111.412887z m0-181.403725c-38.592924 0-69.990837 31.397914-69.990837 69.990838s31.397914 69.990837 69.990837 69.990837c38.592924 0 69.99498-31.397914 69.99498-69.990837s-31.402056-69.990837-69.99498-69.990838z" fill="#6E6E96" p-id="120264"></path><path d="M441.288306 877.241678C210.008291 877.241678 21.848631 689.082017 21.848631 457.802003h41.422049c0 208.435754 169.577729 378.017626 378.017626 378.017625s378.017626-169.577729 378.017626-378.017625h41.422049c0 231.280015-188.159661 419.439675-419.439675 419.439675z" fill="#666666" opacity=".12" p-id="120265"></path><path d="M791.470314 828.670182a20.628181 20.628181 0 0 1-14.642694-6.06833l-222.838201-222.842343a20.70274 20.70274 0 0 1 0-29.285389 20.70274 20.70274 0 0 1 29.285389 0l222.838201 222.842343a20.70274 20.70274 0 0 1 0 29.285389 20.619896 20.619896 0 0 1-14.642695 6.06833z" fill="#6E6E96" p-id="120266"></path><path d="M766.074456 876.570641v-94.0032h93.999057l121.358321 121.350037-94.964191-0.956849 0.952707 94.964191z" fill="#FFD500" p-id="120267"></path><path d="M887.424492 1018.635845a20.711025 20.711025 0 0 1-14.650979-6.068331l-121.345894-121.354179a20.70274 20.70274 0 0 1-6.064188-14.642694v-93.999058a20.711025 20.711025 0 0 1 20.711025-20.711025h93.994915c5.492564 0 10.761449 2.1788 14.642694 6.064188l121.358322 121.350037a20.711025 20.711025 0 0 1-14.642695 35.357862h-0.211252l-73.830662-0.749739 0.745597 73.834803a20.698598 20.698598 0 0 1-20.706883 20.918136z m-100.639012-150.647853l79.414354 79.422638-0.443216-44.247033a20.711025 20.711025 0 0 1 20.711025-20.918136h0.211252l44.23875 0.447359-79.422639-79.418496H786.789623v64.713668z" fill="#6E6E96" p-id="120268"></path><path d="M699.538217 491.937914a14.497717 14.497717 0 0 1-14.497717-14.497718c0-126.875738-109.275509-230.099486-243.59479-230.099486-134.331707 0-243.619643 103.223748-243.619643 230.099486a14.497717 14.497717 0 1 1-28.995435 0c0-142.864649 122.29446-259.094921 272.615078-259.094921 150.308192 0 272.590225 116.230271 272.590225 259.094921a14.497717 14.497717 0 0 1-14.497718 14.497718z" fill="#FFFFFF" opacity=".15" p-id="120269"></path><path d="M443.297275 513.614072a20.711025 20.711025 0 0 1-14.646836-35.353719l280.332005-280.327864a20.711025 20.711025 0 0 1 29.28539 29.289532l-280.327864 280.327863a20.640607 20.640607 0 0 1-14.642695 6.064188z" fill="#6E6E96" p-id="120270"></path><path d="M792.920086 238.227859h-94.94348V143.280237L820.544451 20.712392l-0.969276 95.908614 95.912756-0.960992z" fill="#FFD500" p-id="120271"></path><path d="M792.920086 258.938884h-94.94348a20.711025 20.711025 0 0 1-20.711025-20.711025V143.280237c0-5.492564 2.1788-10.761449 6.06833-14.646837l122.567845-122.567845a20.711025 20.711025 0 0 1 35.35372 14.853947l-0.758024 74.779226 74.783369-0.749739c8.607502-0.124266 16.038618 4.929224 19.298533 12.687574a20.711025 20.711025 0 0 1-4.448728 22.666146l-122.567845 122.567845a20.698598 20.698598 0 0 1-14.642695 6.06833z m-74.232455-41.42205h65.653948l80.640447-80.640446-45.195599 0.4515a20.70274 20.70274 0 0 1-20.918135-20.918135l0.455643-45.187314-80.636304 80.636304v65.658091z" fill="#6E6E96" p-id="120272"></path></svg>