<?xml version="1.0" standalone="no"?><!DOCTYPE svg PUBLIC "-//W3C//DTD SVG 1.1//EN" "http://www.w3.org/Graphics/SVG/1.1/DTD/svg11.dtd"><svg t="1731555912362" class="icon" viewBox="0 0 1024 1024" version="1.1" xmlns="http://www.w3.org/2000/svg" p-id="27097" xmlns:xlink="http://www.w3.org/1999/xlink" width="128" height="128"><path d="M442.125479 1.835584C-70.953144 73.706519-62.488345 711.36143 253.424345 872.272469c4.871252 2.475554 31.303785 9.263365 24.356262 47.434818-15.172753 46.157112-26.672103 56.698182-60.211873 98.143755 36.414607 1.676988 84.488278-8.864082 142.384309-30.984359 78.658746-30.105936 172.490245-38.810305 222.161047-49.750658 94.869635-20.922428 352.646724-67.478823 407.268635-378.520261C1036.977256 289.319326 827.513407-26.992647 442.125479 1.835584z m111.320094 320.145089q-29.387227 284.529048-252.027414 429.229198L264.444555 700.421077a478.261148 478.261148 0 0 0 163.226881-161.629748 427.79178 427.79178 0 0 0-85.526414-59.57302L370.81354 433.061197a473.469752 473.469752 0 0 1 82.09258 58.694597 608.666967 608.666967 0 0 0 47.115391-165.383008H397.805069a506.210956 506.210956 0 0 1-110.202101 174.167234L249.750942 449.032516q96.466767-97.744472 130.884959-263.526764l54.542055 10.061931c-5.749675 27.550525-11.738919 51.986643-17.808021 73.308354h135.756211z m201.478189 229.907137a1486.131233 1486.131233 0 0 0-108.525113-113.396365v324.617059h-55.10105V186.623745h55.10105v185.427013q71.152226 55.899617 142.384309 124.097149z" fill="#FF6600" p-id="27098"></path></svg>