<?xml version="1.0" standalone="no"?><!DOCTYPE svg PUBLIC "-//W3C//DTD SVG 1.1//EN" "http://www.w3.org/Graphics/SVG/1.1/DTD/svg11.dtd"><svg t="1731561452237" class="icon" viewBox="0 0 1024 1024" version="1.1" xmlns="http://www.w3.org/2000/svg" p-id="116010" xmlns:xlink="http://www.w3.org/1999/xlink" width="128" height="128"><path d="M771.114667 805.333333H232.362667c-32.256 0-58.069333-23.466667-58.069334-55.872v-64.768c0-32.384 26.218667-55.872 58.069334-55.872h538.752c32.256 0 58.453333 23.466667 58.453333 55.872v64.768c-0.384 32.384-26.197333 55.872-58.453333 55.872z m-65.322667-130.773333a42.325333 42.325333 0 0 0-42.346667 42.112c0 23.466667 18.944 42.496 42.346667 42.496a42.602667 42.602667 0 0 0 41.130667-43.306667 42.773333 42.773333 0 0 0-41.130667-41.301333z m65.322667-87.850667H232.362667c-32.256 0-58.069333-23.466667-58.069334-55.850666v-64.789334c0-32.384 26.218667-55.872 58.069334-55.872h538.752c32.256 0 58.453333 23.488 58.453333 55.893334v64.768c-0.384 32.384-26.197333 55.850667-58.453333 55.850666z m-65.322667-130.346666a42.410667 42.410667 0 0 0-42.346667 42.496c0 23.488 18.944 42.112 42.346667 42.517333a42.069333 42.069333 0 0 0 42.325333-42.112 42.026667 42.026667 0 0 0-42.325333-42.901333c0.384 0 0.384 0 0 0z m65.322667-87.850667H232.362667c-32.256 0-58.069333-23.466667-58.069334-55.872V247.893333C174.293333 215.466667 200.533333 192 232.362667 192h538.752c32.256 0 58.453333 23.466667 58.453333 55.872v64.768c-0.384 32.384-26.197333 55.872-58.453333 55.872z m-65.322667-130.773333a42.410667 42.410667 0 0 0-42.346667 42.517333c0 23.466667 18.944 42.112 42.346667 42.112a42.24 42.24 0 0 0 41.92-42.112 41.813333 41.813333 0 0 0-41.92-42.517333z" fill="#FF6A00" p-id="116011"></path></svg>