<?xml version="1.0" standalone="no"?><!DOCTYPE svg PUBLIC "-//W3C//DTD SVG 1.1//EN" "http://www.w3.org/Graphics/SVG/1.1/DTD/svg11.dtd"><svg t="1731492056609" class="icon" viewBox="0 0 1160 1024" version="1.1" xmlns="http://www.w3.org/2000/svg" p-id="4518" width="145" height="128" xmlns:xlink="http://www.w3.org/1999/xlink"><path d="M136.533 273.067H6.827v221.866h1146.88V273.067h-133.12z" fill="#FDE466" p-id="4519"></path><path d="M1017.173 119.467V276.48h133.12V167.253c0-78.506-61.44-146.773-133.12-160.426v112.64zM136.533 10.24C64.853 23.893 6.827 88.747 6.827 167.253v112.64h129.706V10.24z" fill="#FDE670" p-id="4520"></path><path d="M133.12 361.813h365.227V122.88H133.12zM662.187 122.88v242.347h358.4V122.88z" fill="#F2573B" p-id="4521"></path><path d="M498.347 6.827V276.48l163.84-3.413V6.827z" fill="#FFA371" p-id="4522"></path><path d="M167.253 6.827h-30.72v112.64H501.76V6.827H167.253z m494.934 0v112.64h358.4V6.827c-10.24-3.414-20.48-3.414-27.307-3.414H662.187z" fill="#E1462A" p-id="4523"></path><path d="M7.441 861.286c0 88.747 68.267 157.014 157.013 157.014h832.854c88.746 0 157.013-61.44 157.013-153.6V461.926H7.441v399.36z" fill="#F9C45A" p-id="4524"></path><path d="M133.734 653.073h894.294v-61.44H133.734z" fill="#D7341F" p-id="4525"></path><path d="M133.734 895.42h894.294V653.073H133.734z" fill="#EB492C" p-id="4526"></path><path d="M389.12 457.387c0 112.64 88.747 204.8 201.387 204.8 51.2 0 98.986-20.48 136.533-54.614L443.733 317.44c-34.133 37.547-54.613 85.333-54.613 139.947m406.187 0c0-112.64-88.747-204.8-201.387-204.8-20.48 0-40.96 3.413-58.027 10.24l252.587 256c3.413-20.48 6.827-40.96 6.827-61.44" fill="#FCD134" p-id="4527"></path><path d="M785.067 515.413l-252.587-256c-34.133 10.24-68.267 30.72-92.16 58.027l283.307 290.133c30.72-23.893 51.2-54.613 61.44-92.16" fill="#FFE786" p-id="4528"></path><path d="M481.28 457.387c0-61.44 51.2-112.64 109.227-112.64s109.226 51.2 109.226 112.64-51.2 112.64-109.226 112.64-109.227-51.2-109.227-112.64z" fill="#E56049" p-id="4529"></path><path d="M822.613 44.373c0 98.987-78.506 180.907-177.493 180.907 98.987 0 177.493 81.92 177.493 180.907 0-98.987 78.507-180.907 177.494-180.907-95.574 0-177.494-81.92-177.494-180.907M276.48 85.333c0 98.987-78.507 180.907-177.493 180.907 98.986 0 177.493 81.92 177.493 180.907 0-98.987 78.507-180.907 177.493-180.907-98.986 0-177.493-81.92-177.493-180.907" fill="#FFFFFF" p-id="4530"></path></svg>