<?xml version="1.0" standalone="no"?><!DOCTYPE svg PUBLIC "-//W3C//DTD SVG 1.1//EN" "http://www.w3.org/Graphics/SVG/1.1/DTD/svg11.dtd"><svg t="1731561202551" class="icon" viewBox="0 0 1024 1024" version="1.1" xmlns="http://www.w3.org/2000/svg" p-id="104386" xmlns:xlink="http://www.w3.org/1999/xlink" width="128" height="128"><path d="M512.103253 85.333333c14.506667 0 28.16 6.826667 37.461334 18.602667l215.722666 274.602667 183.04-129.365334a46.506667 46.506667 0 0 1 54.442667 0.341334 53.248 53.248 0 0 1 20.224 53.674666l-121.941333 594.773334A49.493333 49.493333 0 0 1 853.436587 938.666667H170.76992a49.493333 49.493333 0 0 1-47.616-40.789334l-122.026667-594.773333a53.248 53.248 0 0 1 20.309334-53.589333 46.506667 46.506667 0 0 1 54.442666-0.341334l183.04 129.365334L474.556587 103.936A47.786667 47.786667 0 0 1 512.103253 85.333333z m-74.666666 629.845334a50.346667 50.346667 0 0 0 49.749333 50.773333h49.834667a50.346667 50.346667 0 0 0 49.749333-50.773333 50.346667 50.346667 0 0 0-49.749333-50.773334h-49.834667a50.346667 50.346667 0 0 0-49.749333 50.773334z" fill="#FF7C15" p-id="104387"></path></svg>