<?xml version="1.0" standalone="no"?><!DOCTYPE svg PUBLIC "-//W3C//DTD SVG 1.1//EN" "http://www.w3.org/Graphics/SVG/1.1/DTD/svg11.dtd"><svg t="1731555866378" class="icon" viewBox="0 0 1024 1024" version="1.1" xmlns="http://www.w3.org/2000/svg" p-id="25038" xmlns:xlink="http://www.w3.org/1999/xlink" width="128" height="128"><path d="M766.1056 923.9552h-503.296c-68.2496 0-123.5456-55.296-123.5456-123.5456V237.5168c0-68.2496 55.296-123.5456 123.5456-123.5456h503.296c68.2496 0 123.5456 55.296 123.5456 123.5456v562.8928c0 68.2496-55.296 123.5456-123.5456 123.5456z" fill="#F55651" p-id="25039"></path><path d="M282.5216 113.9712H268.8c-71.5264 0-129.536 58.0096-129.536 129.536v550.9632c0 71.5264 58.0096 129.536 129.536 129.536h13.7216V113.9712z" fill="#FACF5D" p-id="25040"></path><path d="M756.0192 424.0896l-90.112-55.04a23.808 23.808 0 0 0-24.832 0l-90.112 55.04c-16.0768 9.8304-36.5568-1.9968-36.5568-21.1456V118.272h278.1184v284.672c0.0512 19.1488-20.3776 30.976-36.5056 21.1456z" fill="#E3413F" p-id="25041"></path><path d="M539.9552 157.5424H285.0304v-43.5712h244.48z" fill="#F67969" p-id="25042"></path><path d="M733.184 385.3824l-81.5616-48.8448a21.8624 21.8624 0 0 0-22.4768 0l-81.5616 48.8448c-14.592 8.704-33.1264-1.792-33.1264-18.7392V113.9712h251.8528v252.672c0 16.9984-18.5344 27.4944-33.1264 18.7392z" fill="#FFFFFF" p-id="25043"></path><path d="M139.4688 800.7168c3.2768 68.608 59.9552 123.2384 129.3312 123.2384h13.7216V113.9712H268.8c-10.3936 0-20.5312 1.28-30.208 3.584V868.352s-64.4608 5.3248-99.1232-67.6352z" fill="#F8B031" p-id="25044"></path><path d="M889.6512 800.4096V237.5168c0-68.1472-55.1936-123.4432-123.3408-123.5456 0.1536 0.1024 70.4 42.6496 70.4 128.8192v533.8112c0 37.2736-1.3312 92.16-92.16 92.16H282.5216s0.8704 19.5584 2.2528 55.1936h481.3312c68.2496 0 123.5456-55.296 123.5456-123.5456z" fill="#E3413F" p-id="25045"></path><path d="M766.1056 934.1952h-503.296c-73.7792 0-133.7856-60.0064-133.7856-133.7856V237.5168c0-73.7792 60.0064-133.7856 133.7856-133.7856h503.296c73.7792 0 133.7856 60.0064 133.7856 133.7856v562.8928c0 73.7792-60.0064 133.7856-133.7856 133.7856z m-503.296-809.984c-62.464 0-113.3056 50.8416-113.3056 113.3056v562.8928c0 62.464 50.8416 113.3056 113.3056 113.3056h503.296c62.464 0 113.3056-50.8416 113.3056-113.3056V237.5168c0-62.464-50.8416-113.3056-113.3056-113.3056h-503.296z" fill="#4B2254" p-id="25046"></path><path d="M292.7616 934.1952H268.8c-77.056 0-139.7248-62.72-139.7248-139.776V243.5072c0-77.056 62.6688-139.7248 139.7248-139.7248h23.9616v830.4128zM268.8 124.2112c-65.7408 0-119.2448 53.504-119.2448 119.2448v550.9632c0 65.792 53.504 119.296 119.2448 119.296h3.4816V124.2112h-3.4816z" fill="#4B2254" p-id="25047"></path><path d="M547.584 385.3824l81.5616-48.8448a21.8624 21.8624 0 0 1 22.4768 0l81.5616 48.8448c14.592 8.704 33.1264-1.792 33.1264-18.7392V113.9712h-36.8128v212.0192c0 7.168-7.7824 11.6224-13.9264 7.9872L645.12 292.6592c-2.9184-1.7408-6.5536-1.6896-9.472 0.0512l-121.1904 73.5744v0.3584c0 16.9984 18.5344 27.4944 33.1264 18.7392z" fill="#F2F0E7" p-id="25048"></path><path d="M536.3712 398.7968c-5.4272 0-10.8544-1.3824-15.8208-4.2496a31.7952 31.7952 0 0 1-16.2816-27.9552V103.7312h272.3328v262.912c0 11.7248-6.0928 22.1696-16.2816 27.9552s-22.272 5.632-32.3072-0.3584l-81.5616-48.8448c-3.6864-2.2016-8.2432-2.2016-11.9296 0L552.96 394.24c-5.2736 3.0208-10.9568 4.5568-16.5888 4.5568z m202.0864-22.1696c5.2736 3.1232 9.9328 1.1264 11.7248 0.1536 1.792-1.024 5.888-3.9936 5.888-10.1376V124.2112h-231.3728v242.432c0 6.0928 4.096 9.1136 5.888 10.1376 1.792 1.024 6.4512 2.9696 11.7248-0.1536l81.5616-48.8448a32.0256 32.0256 0 0 1 32.9728 0l81.6128 48.8448z" fill="#4B2254" p-id="25049"></path></svg>