<?xml version="1.0" standalone="no"?><!DOCTYPE svg PUBLIC "-//W3C//DTD SVG 1.1//EN" "http://www.w3.org/Graphics/SVG/1.1/DTD/svg11.dtd"><svg t="1731556776608" class="icon" viewBox="0 0 1024 1024" version="1.1" xmlns="http://www.w3.org/2000/svg" p-id="84844" xmlns:xlink="http://www.w3.org/1999/xlink" width="128" height="128"><path d="M763.6 416.8c-15.4 0-27.8-11.7-27.8-26.2s12.4-26.2 27.8-26.2h137.2v-220H475.2v313.7h425.6v-41.3H763.6z" fill="#5BACFE" p-id="84845"></path><path d="M163 416c-52.6 0-95.5 40.4-95.5 90.2v123.3c0 14.5 12.4 26.2 27.8 26.2h135.2c15.4 0 27.8-11.7 27.8-26.2V506.2c0.2-49.8-42.8-90.2-95.3-90.2z" fill="#E6C69F" p-id="84846"></path><path d="M258.5 629.4c0 14.5-12.4 26.2-27.8 26.2H95.3c-15.4 0-27.8-11.7-27.8-26.2V506c0-49.7 42.7-90.2 95.5-90.2s95.5 40.4 95.5 90.2v123.4z m-95.5-266c-83.3 0-151 64-151 142.6v123.3c0 35.2 24.4 64.9 58.1 74.9V958c0 14.5 12.4 26.2 27.8 26.2s27.8-11.7 27.8-26.2V708h74.6v250.1c0 14.5 12.4 26.2 27.8 26.2s27.8-11.7 27.8-26.2V704.3c33.7-10 58.1-40 58.1-74.9V506c0-78.6-67.7-142.6-151-142.6zM163 258c-26.8 0-48.6-20.6-48.6-45.9 0-25.3 21.9-45.9 48.6-45.9 26.8 0 48.6 20.6 48.6 45.9 0 25.4-21.8 45.9-48.6 45.9z m0-144.2c-57.5 0-104.1 44.1-104.1 98.4s46.7 98.4 104.1 98.4 104.1-44.1 104.1-98.4-46.6-98.4-104.1-98.4zM880.5 134.6l-83.9 80-107.5-43c-7.5-3-15.9-2.8-23.2 0.7-7.3 3.5-12.6 9.9-14.6 17.3l-32.1 125.5-53.7-41.3c-6.7-5.2-15.6-7.1-24-5.2-8.5 1.9-15.4 7.4-18.9 15.1l-72.2 155.7c-6.1 13.2 0.2 28.8 14.4 34.6 15.7 6 30.9-1.9 36.6-13.6l57.5-124.2 59.4 45.8c7.5 5.8 17.3 7.4 26.4 4.5 9.1-2.8 15.9-9.9 18.1-18.8l34.8-136 94.7 37.8c10.4 4.1 22.4 1.9 30.5-5.8l97-92.6c10.8-10.2 10.6-27-0.2-37.2-10.7-9.7-28.3-9.7-39.1 0.7z" fill="#194F82" p-id="84847"></path><path d="M956.5 484.7c0 14.5-12.4 26.2-27.8 26.2H447.4c-15.4 0-27.8-11.7-27.8-26.2V118.3c0-14.5 12.4-26.2 27.8-26.2h481.3c15.4 0 27.8 11.7 27.8 26.2v366.4zM516.1 771.8l51.8-208.3h240.2l51.8 208.3H516.1zM928.7 39.6H447.4c-45.9 0-83.3 35.3-83.3 78.7v366.4c0 43.3 37.4 78.7 83.3 78.7h63.4L414.2 952c-3.5 14.1 5.7 28.3 20.7 31.6 15 3.3 29.9-5.4 33.5-19.5l34.8-139.9H873l34.8 139.9c3.5 14.1 18.5 22.9 33.5 19.5 15-3.3 24.2-17.5 20.7-31.6l-96.7-388.7h63.4c45.9 0 83.3-35.3 83.3-78.7V118.3c0-43.4-37.4-78.7-83.3-78.7z" fill="#194F82" p-id="84848"></path></svg>