<?xml version="1.0" standalone="no"?><!DOCTYPE svg PUBLIC "-//W3C//DTD SVG 1.1//EN" "http://www.w3.org/Graphics/SVG/1.1/DTD/svg11.dtd"><svg t="1731556668920" class="icon" viewBox="0 0 1059 1024" version="1.1" xmlns="http://www.w3.org/2000/svg" p-id="77420" xmlns:xlink="http://www.w3.org/1999/xlink" width="132.375" height="128"><path d="M516.467993 1024c-283.569442 0-512.00375-228.428058-512.00375-511.99875 0-283.569442 228.433058-512.0025 512.00375-512.0025s511.99875 228.433058 511.99875 512.0025S800.038686 1024 516.467993 1024z" fill="#2BA245" p-id="77421"></path><path d="M453.62034 540.315069h126.686559v224.365548H453.62034z" fill="#2E9A44" p-id="77422"></path><path d="M517.039245 426.09979c75.187684 0 132.744074-56.396388 132.744074-130.020317 0-73.77268-57.556391-130.016567-132.744074-130.016568-75.265184 0-132.747824 56.245137-132.747824 130.016568 0 73.62393 57.40764 130.020317 132.747824 130.020317z m0 86.653962c-101.856499 0-309.792006 51.973877-309.792007 151.66162v108.371515h619.432763v-108.371515c-0.00125-99.686493-207.935508-151.66162-309.640756-151.66162z m-0.148751 229.855561l-44.227608-65.771411 44.227608-131.542821 44.222608 131.542821-44.222608 65.771411z m0 0" fill="#FFFFFF" p-id="77423"></path></svg>