<?xml version="1.0" standalone="no"?><!DOCTYPE svg PUBLIC "-//W3C//DTD SVG 1.1//EN" "http://www.w3.org/Graphics/SVG/1.1/DTD/svg11.dtd"><svg t="1731492623648" class="icon" viewBox="0 0 1031 1024" version="1.1" xmlns="http://www.w3.org/2000/svg" p-id="45907" xmlns:xlink="http://www.w3.org/1999/xlink" width="128.875" height="128"><path d="M783.155639 530.241629h-246.879186v246.879185a251.542459 251.542459 0 0 0 246.879186 246.879186 251.542459 251.542459 0 0 0 246.879186-246.879186 251.542459 251.542459 0 0 0-246.879186-246.879185zM246.879186 0a251.542459 251.542459 0 0 0-246.879186 246.879186 251.542459 251.542459 0 0 0 246.879186 246.879185h246.879185V246.879186a251.542459 251.542459 0 0 0-246.879185-246.879186zM0 776.572194a251.542459 251.542459 0 0 0 246.879186 246.879186 251.542459 251.542459 0 0 0 246.879185-246.879186v-246.879186H246.879186a251.542459 251.542459 0 0 0-246.879186 246.879186zM783.155639 0a251.542459 251.542459 0 0 0-246.879186 246.879186v246.879185h246.879186a251.542459 251.542459 0 0 0 246.879186-246.879185 251.542459 251.542459 0 0 0-246.879186-246.879186z" fill="#1296db" p-id="45908"></path></svg>