<?xml version="1.0" standalone="no"?><!DOCTYPE svg PUBLIC "-//W3C//DTD SVG 1.1//EN" "http://www.w3.org/Graphics/SVG/1.1/DTD/svg11.dtd"><svg t="1731561128137" class="icon" viewBox="0 0 1024 1024" version="1.1" xmlns="http://www.w3.org/2000/svg" p-id="99474" xmlns:xlink="http://www.w3.org/1999/xlink" width="128" height="128"><path d="M890.88 927.744H133.12c-19.968 0-36.352-16.384-36.352-36.352V371.712c0-19.968 16.384-36.352 36.352-36.352h757.76c19.968 0 36.352 16.384 36.352 36.352v519.68c0 19.968-16.384 36.352-36.352 36.352z" fill="#388E3C" p-id="99475"></path><path d="M653.824 96.256H219.136c-19.968 0-36.352 16.384-36.352 36.352V757.76c0 19.968 16.384 36.352 36.352 36.352h585.728c19.968 0 36.352-16.384 36.352-36.352V282.112l-187.392-185.856z" fill="#E8F5E9" p-id="99476"></path><path d="M96.768 424.96v466.432c0 19.968 16.384 36.352 36.352 36.352h31.744l346.624-228.864-414.72-273.92z m415.232 273.92l346.624 228.864h31.744c19.968 0 36.352-16.384 36.352-36.352V424.96l-414.72 273.92z" fill="#4CAF50" p-id="99477"></path><path d="M165.376 927.744h693.76L512 698.88l-346.624 228.864z" fill="#43A047" p-id="99478"></path><path d="M716.288 519.168H307.712c-10.24 0-18.432-8.192-18.432-18.432s8.192-18.432 18.432-18.432h408.576c10.24 0 18.432 8.192 18.432 18.432s-8.192 18.432-18.432 18.432zM531.456 240.64H307.712c-10.24 0-18.432-8.192-18.432-18.432s8.192-18.432 18.432-18.432h223.744c10.24 0 18.432 8.192 18.432 18.432s-8.192 18.432-18.432 18.432z m0 92.672H307.712c-10.24 0-18.432-8.192-18.432-18.432s8.192-18.432 18.432-18.432h223.744c10.24 0 18.432 8.192 18.432 18.432s-8.192 18.432-18.432 18.432z m184.832 92.672H307.712c-10.24 0-18.432-8.192-18.432-18.432s8.192-18.432 18.432-18.432h408.576c10.24 0 18.432 8.192 18.432 18.432s-8.192 18.432-18.432 18.432z" fill="#C8E6C9" p-id="99479"></path><path d="M841.216 282.112h-151.04c-19.968 0-36.352-16.384-36.352-36.352V96.256l187.392 185.856z" fill="#A5D6A7" p-id="99480"></path></svg>