<?xml version="1.0" standalone="no"?><!DOCTYPE svg PUBLIC "-//W3C//DTD SVG 1.1//EN" "http://www.w3.org/Graphics/SVG/1.1/DTD/svg11.dtd"><svg t="1731561335368" class="icon" viewBox="0 0 1024 1024" version="1.1" xmlns="http://www.w3.org/2000/svg" p-id="111529" xmlns:xlink="http://www.w3.org/1999/xlink" width="128" height="128"><path d="M512 510.959213m-503.606557 0a503.606557 503.606557 0 1 0 1007.213114 0 503.606557 503.606557 0 1 0-1007.213114 0Z" fill="#FF9201" p-id="111530"></path><path d="M307.535738 528.719738l5.237508-38.274099h-36.662557l5.237508-37.065442h-78.965508l12.086557 15.712524-3.223082 21.352918h-42.302951l-5.237508 38.274099h143.830033z m161.154098 206.277246l21.755803-154.30505h-64.864524l6.446164-45.526032h66.476065l5.237508-37.468328h-66.476065l6.043279-43.511607h-80.57705l9.266361 10.072131-16.11541 116.433836h-49.152l-21.755803 154.30505H468.689836zM135.503738 734.594098l145.844459-16.115409 5.237508-38.274099-21.755803 2.417312 34.648131-138.18964h-47.137574l-35.453902 143.427148-7.251934 0.80577 3.625967-144.232918H166.525902l-4.028853 149.470427-21.755803 2.417311-5.237508 38.274098zM414.300328 698.334426h-66.476066l10.877902-78.159737h66.476066L414.300328 698.334426z m123.68577 43.914492l124.894427-14.503869 5.237508-38.274098-46.734689 5.640393 12.489443-89.84341h214.334951l5.640393-38.274098h-116.030951l107.973246-107.167475h-84.203016l-107.973246 107.167475h-14.100984l16.11541-114.822295h-91.857836l12.892328 15.309639-14.100984 99.512656h-30.216393l-5.640394 38.274098H557.32459l-19.338492 136.980984z m306.192787 0l-66.878951-121.671344h-84.203016l66.878951 121.671344h84.203016z" fill="#FFFFFF" p-id="111531"></path><path d="M605.435803 186.972328c0-6.278295-5.908984-4.700328-7.755541-2.853771-3.525246 3.860984-12.808393 11.683672-32.684065 15.813246-3.004852 0.671475-6.076852 1.007213-9.16564 1.007213-9.568525 0-17.609443-3.139148-26.758295-6.849049-10.575738-4.129574-22.544787-8.829902-38.895213-8.829901-1.393311 0-2.80341 0-4.213508 0.134295-17.760525 0.856131-33.120525 8.695607-44.25023 14.537442-3.256656 1.645115-6.546885 3.256656-9.853901 4.834623l-0.990426-2.417311-0.134295-0.134295a7.168 7.168 0 0 0-9.451017-3.860984 7.033705 7.033705 0 0 0-3.793836 3.995279 7.554098 7.554098 0 0 0 0 5.556459l73.409049 175.758688c1.091148 2.702689 3.709902 4.448525 6.614033 4.431738a7.302295 7.302295 0 0 0 6.614033-10.105705L479.064131 317.842885c5.38859-9.031344 14.084197-15.611803 24.240262-18.364852 4.498885-1.208656 9.148852-1.846557 13.815607-1.846558 9.43423 0 18.583082 2.131934 28.302689 4.414951 8.880262 1.997639 17.89482 4.129574 26.775081 4.129574 13.379148 0 23.669508-4.700328 32.549771-14.688525a7.218361 7.218361 0 0 0 0.705049-2.266229V186.972328z" fill="#FFFFFF" p-id="111532"></path></svg>