<?xml version="1.0" standalone="no"?><!DOCTYPE svg PUBLIC "-//W3C//DTD SVG 1.1//EN" "http://www.w3.org/Graphics/SVG/1.1/DTD/svg11.dtd"><svg t="1731555408051" class="icon" viewBox="0 0 1024 1024" version="1.1" xmlns="http://www.w3.org/2000/svg" p-id="6935" xmlns:xlink="http://www.w3.org/1999/xlink" width="128" height="128"><path d="M672.064 384V128a32 32 0 0 0-32-32h-256a32 32 0 0 0-32 32v256h-96V128a128 128 0 0 1 128-128h256a128 128 0 0 1 128 128v256h-96z" fill="#F05E50" p-id="6936"></path><path d="M464.064 626.56a117.184 117.184 0 1 0 96 0v-53.12a48 48 0 1 0-96 0v53.12zM176 352h672.192a48 48 0 0 1 48 48v576a48 48 0 0 1-48 48H176a48 48 0 0 1-48-48v-576a48 48 0 0 1 48-48z" fill="#F05E50" p-id="6937"></path></svg>